<svg width="34" height="34" viewBox="0 0 34 34" fill="none" xmlns="http://www.w3.org/2000/svg">
<rect x="1" y="1" width="32" height="32" rx="16" stroke="#8AB61D" stroke-width="2"/>
<path d="M24.4756 7V15.5714" stroke="#8AB61D" stroke-width="1.1" stroke-linecap="round"/>
<path d="M20.1904 11.2857H28.7619" stroke="#8AB61D" stroke-width="1.1" stroke-linecap="round"/>
<g clip-path="url(#clip0_3210_1251)">
<path d="M21.3099 18.4277C21.2194 18.4277 21.1324 18.3939 21.0628 18.3298L17.5322 14.9002L14.0015 11.4706L6.94021 18.3298C6.80448 18.4615 6.58523 18.4615 6.4495 18.3298L5.05394 16.9782C4.91822 16.8464 4.91822 16.6336 5.05394 16.5018L13.7544 8.05122C13.8901 7.91945 14.1094 7.91945 14.2451 8.05122L17.4782 11.1902L18.8703 12.5417L20.2624 13.8933C20.0291 13.6669 18.0801 11.7746 18.0801 11.7746L19.0425 12.7089C19.0869 12.752 20.3888 14.0161 20.2624 13.8933L22.9456 16.4984C23.0813 16.6302 23.0813 16.843 22.9456 16.9748L21.5535 18.3264C21.4839 18.394 21.3969 18.4244 21.3064 18.4244L21.3099 18.4277ZM14.0015 10.6563C14.092 10.6563 14.179 10.6901 14.2486 10.7543L21.3099 17.6101L22.2113 16.7349L19.6742 14.2717C19.6081 14.2075 19.3407 13.9479 19.4413 14.0456L19.2003 13.8116L18.7921 13.4153C18.7552 13.3795 18.4638 13.0966 18.4992 13.1309C18.5259 13.1569 17.687 12.3424 17.5861 12.2444L14.0015 8.76755L5.79174 16.7383L6.69311 17.6134L13.7544 10.7543C13.824 10.6867 13.911 10.6563 14.0015 10.6563Z" fill="#8AB61D"/>
<path d="M20.2624 13.8933C20.0291 13.6669 18.0801 11.7746 18.0801 11.7746L19.0425 12.7089C19.0869 12.752 20.3888 14.0161 20.2624 13.8933ZM20.2624 13.8933L22.9456 16.4984C23.0813 16.6302 23.0813 16.843 22.9456 16.9748L21.5535 18.3264C21.4839 18.394 21.3969 18.4244 21.3064 18.4244L21.3099 18.4277C21.2194 18.4277 21.1324 18.3939 21.0628 18.3298L17.5322 14.9002L14.0015 11.4706L6.94021 18.3298C6.80448 18.4615 6.58523 18.4615 6.4495 18.3298L5.05394 16.9782C4.91822 16.8464 4.91822 16.6336 5.05394 16.5018L13.7544 8.05122C13.8901 7.91945 14.1094 7.91945 14.2451 8.05122L17.4782 11.1902L18.8703 12.5417L20.2624 13.8933ZM19.6742 14.2717L22.2113 16.7349L21.3099 17.6101L14.2486 10.7543C14.179 10.6901 14.092 10.6563 14.0015 10.6563C13.911 10.6563 13.824 10.6867 13.7544 10.7543L6.69311 17.6134L5.79174 16.7383L14.0015 8.76755L17.5861 12.2444M19.6742 14.2717C19.6081 14.2075 19.3407 13.9479 19.4413 14.0456L19.2003 13.8116L18.7921 13.4153C18.7552 13.3795 18.4638 13.0966 18.4992 13.1309C18.5259 13.1569 17.687 12.3424 17.5861 12.2444M19.6742 14.2717L17.5861 12.2444" stroke="#8AB61D" stroke-width="0.3"/>
<path d="M20.4284 17.65V25.0952C20.4284 25.2698 20.2676 25.4127 20.0712 25.4127H16.8569V19.381C16.8569 19.2064 16.6962 19.0635 16.4998 19.0635H11.4998C11.3034 19.0635 11.1426 19.2064 11.1426 19.381V25.4127H7.92836C7.73193 25.4127 7.57122 25.2698 7.57122 25.0952V17.65L6.85693 18.4286V25.0952C6.85693 25.6191 7.33908 26.0476 7.92836 26.0476H20.0712C20.6605 26.0476 21.1426 25.6191 21.1426 25.0952V17.887L20.4284 17.65ZM11.8569 19.6984H16.1426V25.4127H11.8569V19.6984Z" fill="#8AB61D" stroke="#8AB61D" stroke-width="0.3"/>
<path d="M16.9143 17.4762H11.0803C10.9136 17.4762 10.7594 17.3746 10.6969 17.2138C10.6344 17.0572 10.6677 16.8753 10.7886 16.7526L13.7056 13.7904C13.8681 13.6254 14.1306 13.6254 14.2931 13.7904L17.2101 16.7526C17.331 16.8753 17.3643 17.0572 17.3018 17.2138C17.2393 17.3704 17.0851 17.4762 16.9184 17.4762H16.9143ZM12.0845 16.6299H15.9058L13.9931 14.6875L12.0804 16.6299H12.0845Z" fill="#8AB61D" stroke="#8AB61D" stroke-width="0.1"/>
</g>
<defs>
<clipPath id="clip0_3210_1251">
<rect width="20" height="20" fill="white" transform="translate(4 7)"/>
</clipPath>
</defs>
</svg>
