<svg width="34" height="34" viewBox="0 0 34 34" fill="none" xmlns="http://www.w3.org/2000/svg">
<rect width="34" height="34" rx="17" fill="#8AB61D"/>
<path d="M24.4995 7V16" stroke="white" stroke-width="1.2" stroke-linecap="round"/>
<path d="M20 11.5H29" stroke="white" stroke-width="1.2" stroke-linecap="round"/>
<g clip-path="url(#clip0_3210_1251)">
<path d="M20.2686 18.7303C20.1786 18.7303 20.0921 18.6956 20.0229 18.6299L12.9994 11.603L5.97594 18.6299C5.84094 18.7649 5.62286 18.7649 5.48786 18.6299L4.09979 17.2453C3.96479 17.1103 3.96479 16.8922 4.09979 16.7572L12.7536 8.09988C12.8886 7.96488 13.1067 7.96488 13.2417 8.09988L16.4575 11.3156L17.8421 12.7003L19.2267 14.0849C18.9947 13.8529 17.0562 11.9143 17.0562 11.9143L18.0134 12.8715C18.0575 12.9157 19.3525 14.2107 19.2267 14.0849L21.8956 16.7537C22.0306 16.8887 22.0306 17.1068 21.8956 17.2418L20.5109 18.6264C20.4417 18.6956 20.3552 18.7268 20.2652 18.7268L20.2686 18.7303ZM12.9994 10.7687C13.0894 10.7687 13.1759 10.8033 13.2452 10.8691L20.2686 17.8926L21.1652 16.996L18.6417 14.4726C18.5759 14.4068 18.31 14.1408 18.41 14.2409L18.1703 14.0012L17.7643 13.5951C17.7276 13.5585 17.4378 13.2687 17.473 13.3038C17.4996 13.3304 16.6652 12.496 16.5648 12.3956L12.9994 8.83372L4.83363 16.9995L5.73017 17.896L12.7536 10.8691C12.8229 10.7999 12.9094 10.7687 12.9994 10.7687Z" fill="white"/>
<path d="M19.231 17.6923V24.9616C19.231 25.1519 19.0752 25.3077 18.8848 25.3077H15.7695V18.7308C15.7695 18.5404 15.6137 18.3846 15.4233 18.3846H10.5771C10.3868 18.3846 10.231 18.5404 10.231 18.7308V25.3077H7.11561C6.92523 25.3077 6.76946 25.1519 6.76946 24.9616V17.6923H6.07715V24.9616C6.07715 25.5327 6.54446 26 7.11561 26H18.8848C19.456 26 19.9233 25.5327 19.9233 24.9616V17.6923H19.231ZM10.9233 19.0769H15.0771V25.3077H10.9233V19.0769Z" fill="white"/>
<path d="M15.4232 17H10.577C10.4386 17 10.3105 16.9169 10.2586 16.7854C10.2066 16.6573 10.2343 16.5085 10.3347 16.4081L12.7578 13.985C12.8928 13.85 13.1109 13.85 13.2459 13.985L15.6689 16.4081C15.7693 16.5085 15.797 16.6573 15.7451 16.7854C15.6932 16.9135 15.5651 17 15.4266 17H15.4232ZM11.4112 16.3077H14.5855L12.9966 14.7189L11.4078 16.3077H11.4112Z" fill="white"/>
</g>
<defs>
<clipPath id="clip0_3210_1251">
<rect width="18" height="18" fill="white" transform="translate(4 8)"/>
</clipPath>
</defs>
</svg>
