<svg width="120" height="120" viewBox="0 0 120 120" fill="none" xmlns="http://www.w3.org/2000/svg">
<g clip-path="url(#clip0_2556_6166)">
<path d="M97.7286 93.1811L83.9027 72.7242C83.5338 71.9931 82.5671 71.5141 81.7531 71.6528L28.4844 98.7396" stroke="white" stroke-width="2" stroke-linecap="round" stroke-linejoin="round"/>
<path d="M32.2493 62.5776L32.9616 73.2914C32.9616 73.2914 31.4099 81.9884 31.0664 83.8412C30.6849 85.8453 31.6515 87.1436 32.9871 87.5973C33.8393 87.8872 35.5564 87.7864 36.345 85.9714C37.1081 84.232 40.0717 74.1989 40.0717 74.1989L40.2625 65.7161" stroke="white" stroke-width="2" stroke-linejoin="round"/>
<path d="M38.3291 39.6756C32.8852 44.377 31.219 55.0025 31.0155 58.267C30.9264 59.7543 30.7483 62.2878 33.7628 63.5482C37.5023 65.1112 47.8941 67.9724 47.8941 67.9724L49.5603 78.2576C49.7384 79.3667 50.6414 81.0305 53.2616 80.7532C55.3603 80.539 56.1998 78.7491 56.0599 76.8207C55.8182 73.5435 54.9533 65.2624 54.7752 64.0146C54.6735 63.3592 54.6735 62.1996 53.6432 61.645C50.9849 60.1955 42.5646 57.0066 42.5646 57.0066L46.0243 46.3181L54.7752 46.9735C55.5002 47.0113 56.098 46.9987 56.8103 46.7844L65.2306 43.8224C67.2529 43.2426 68.3086 41.9317 67.9016 40.3058C67.4946 38.6546 65.9047 37.8353 63.8823 38.4025L56.327 40.2175L45.1594 38.3773C43.2515 37.9992 40.237 38.0118 38.3418 39.6503L38.3291 39.6756Z" stroke="white" stroke-width="2" stroke-linejoin="round"/>
<path d="M49.8147 34.6463C53.5414 34.6337 56.5559 31.6086 56.5305 27.9156C56.5178 24.2099 53.4651 21.2352 49.7384 21.2478C46.0116 21.2604 42.9971 24.2729 43.0098 27.9786C43.0225 31.6843 46.0625 34.6589 49.8019 34.6463H49.8147Z" stroke="white" stroke-width="2" stroke-linejoin="round"/>
<path d="M35.8233 42.5744C37.4895 39.94 37.2733 37.8477 33.75 36.6881C31.0662 35.8058 29.1075 36.6377 27.5303 38.5662C24.7193 41.982 22.6587 46.4943 21.514 49.9101C20.7127 52.3175 21.8574 54.4855 25.1263 56.0737C27.9373 57.4475 30.8373 56.8299 31.486 54.4981" stroke="white" stroke-width="2" stroke-linejoin="round"/>
<path d="M65.2305 43.835L70.0511 69.7496" stroke="white" stroke-width="2" stroke-linecap="round" stroke-linejoin="round"/>
<path d="M63.7935 36.2722L64.2005 38.3519" stroke="white" stroke-width="2" stroke-linecap="round" stroke-linejoin="round"/>
<path d="M82.0709 93.1811L79.9595 86.6772" stroke="white" stroke-width="2" stroke-linecap="round" stroke-linejoin="round"/>
<path d="M46.9653 98.7395L59.4558 90.3828" stroke="white" stroke-width="2" stroke-linecap="round" stroke-linejoin="round"/>
</g>
<defs>
<clipPath id="clip0_2556_6166">
<rect width="79" height="80" fill="white" transform="translate(20.0005 20)"/>
</clipPath>
</defs>
</svg>
