<svg width="120" height="120" viewBox="0 0 120 120" fill="none" xmlns="http://www.w3.org/2000/svg">
<g clip-path="url(#clip0_2556_6169)">
<path d="M44.0921 89.4395C40.04 89.1083 37.0804 88.1146 37.0804 88.1146C38.3379 81.2102 35.645 68.3185 31.3135 65.7197" stroke="white" stroke-width="2" stroke-linejoin="round"/>
<path d="M47.6997 29.2229C52.3488 29.2229 56.9979 33.2739 57.0233 36.8662C57.0233 36.8662 62.841 37.2356 65.2925 43.0573" stroke="white" stroke-width="2" stroke-linecap="round" stroke-linejoin="round"/>
<path d="M60.262 51.5032C61.3163 58.6879 55.0159 65.5669 46.1877 66.8662C37.3722 68.1656 29.3697 63.3758 28.3281 56.1911" stroke="white" stroke-width="2" stroke-linecap="round"/>
<path d="M58.9413 64.2166C58.2427 63.7325 57.5949 63.172 57.0359 62.5096C56.8454 62.293 56.6676 62.0765 56.5024 61.8472" stroke="white" stroke-width="2" stroke-linejoin="round"/>
<path d="M33.7397 64.3185C30.3736 66.5223 25.0513 67.465 20.5038 64.3185C13.5556 59.516 13.9367 49.465 19.2463 45.5924C18.1412 37.2867 24.8353 31.8981 30.0306 31.2739C33.0411 25.3504 39.2525 21.2739 46.4421 21.2739C53.6317 21.2739 59.8431 25.3504 62.8409 31.2739C69.0778 32.4204 74.6414 37.7707 73.6252 45.5924" stroke="white" stroke-width="2" stroke-linejoin="round"/>
<path d="M46.4165 76.1656C46.4165 76.1656 48.1948 69.4267 53.5171 64.2166" stroke="white" stroke-width="2" stroke-linecap="round" stroke-linejoin="round"/>
<path d="M46.4167 76.1656C46.4167 76.1656 45.1972 71.5541 41.7676 67.0063" stroke="white" stroke-width="2" stroke-linecap="round" stroke-linejoin="round"/>
<path d="M86.3655 76.7134C80.116 82.9809 52.3993 103.172 47.0897 97.8472C41.7801 92.5223 61.9134 64.7261 68.163 58.4586C74.4126 52.1911 79.3665 54.8408 84.6634 60.1529C89.973 65.4777 92.6151 70.4331 86.3655 76.7007V76.7134Z" stroke="white" stroke-width="2"/>
<path d="M64.5938 62.6116L69.4461 67.4778" stroke="white" stroke-width="2" stroke-linecap="round"/>
<path d="M67.4644 83.4905L71.834 87.8854" stroke="white" stroke-width="2" stroke-linecap="round"/>
<path d="M49.6177 85.1211L53.5681 89.0956" stroke="white" stroke-width="2" stroke-linecap="round"/>
<path d="M82.5677 58.2292C82.4914 57.1337 81.8055 56.1018 81.0688 55.0063C80.2939 53.8343 79.4937 52.6368 79.4175 51.2228C79.3794 50.5986 79.5699 50.0763 79.735 49.6177C80.0018 48.8789 80.1923 48.3438 79.5191 47.5031C77.7154 45.2993 78.287 43.4776 78.8967 42.7515C79.4429 42.1018 80.2685 41.7451 81.2085 41.7451C83.2409 41.7451 85.7306 43.4012 86.6959 47.0827C87.0897 48.5604 86.9373 51.8343 86.5435 54.7005C86.6578 54.5349 86.7722 54.3693 86.8738 54.191C88.0805 52.3566 89.211 50.6241 90.7099 49.2228C91.6245 48.3693 92.6534 47.9107 93.695 47.9107C95.016 47.9107 96.299 48.6623 97.0611 49.8725C97.6962 50.8916 97.8232 52.0381 97.3914 52.9298C96.5911 54.5731 94.419 55.4903 92.9709 56.0891C92.5772 56.2547 92.2215 56.3948 91.9801 56.5349C91.0148 57.0572 90.1129 57.7579 89.4524 58.3311C90.6845 58.1273 92.1961 57.9617 93.7839 57.9617C95.613 57.9617 97.2262 58.191 98.5473 58.6368C101.088 59.5031 102.879 61.1082 103.489 63.0445C103.857 64.2419 103.73 65.4266 103.133 66.2292C102.879 66.5731 102.193 67.4903 100.935 67.4903C100.097 67.4903 99.157 67.1082 98.0646 66.3056C97.6454 65.9999 97.2897 65.8598 96.9214 65.8598C96.5911 65.8598 96.2863 65.9617 95.9179 66.0891C95.5114 66.2292 95.0414 66.3948 94.4825 66.3948H94.3301C92.9074 66.3184 91.7007 65.363 90.5321 64.433C89.4651 63.5923 88.4616 62.7897 87.3819 62.6878C87.2549 62.6878 87.1151 62.7133 86.9627 62.7387" stroke="white" stroke-width="2" stroke-linejoin="round"/>
</g>
<defs>
<clipPath id="clip0_2556_6169">
<rect width="91" height="80" fill="white" transform="translate(14 20)"/>
</clipPath>
</defs>
</svg>
