<svg width="120" height="120" viewBox="0 0 120 120" fill="none" xmlns="http://www.w3.org/2000/svg">
<g clip-path="url(#clip0_2556_6165)">
<path d="M51.5979 62.1387L47.8026 70.6934L33.6717 72.251C33.6717 72.251 31.2012 72.7422 31.3444 75.7017C31.4757 78.4334 33.2659 78.9726 33.8746 79.0804L52.6124 78.685C53.4359 78.685 54.4145 78.1099 54.7965 77.3791L58.2098 71.628" stroke="white" stroke-width="2" stroke-linejoin="round"/>
<path d="M42.6109 50.6605C44.0192 51.8107 45.4991 51.5591 46.2391 50.7923L54.2832 42.4772L61.3009 44.2624L53.4716 54.6503C52.3856 56.4955 50.2731 60.1019 52.0156 63.0972L61.11 75.6178L57.2669 89.8757C57.2669 89.8757 56.9447 92.2121 59.7494 93.1347C61.3129 93.6499 63.1986 93.4342 63.855 91.9965L70.5147 73.6888C70.813 72.922 70.634 71.7838 70.1208 71.1368L63.5328 61.5277L69.5121 54.4946L69.7866 57.9093C69.8582 58.4844 70.1208 59.2392 70.6698 59.5747C74.3577 61.8392 84.5262 67.111 84.5262 67.111C85.6362 67.5663 87.0684 67.0871 87.9754 65.7092C89.1689 63.888 87.9874 62.1627 87.9874 62.1627L77.6279 54.0632C77.6279 54.0632 77.5921 46.1795 77.4966 43.0763C77.3772 39.2662 72.842 35.6118 69.7986 35.5759C65.4065 35.516 52.2543 35.1206 52.2543 35.1206C50.9176 35.1206 50.1179 36.0072 49.3302 36.9538L41.6083 46.6947C41.6083 46.6947 40.3194 48.7794 42.6109 50.6485V50.6605Z" stroke="white" stroke-width="2" stroke-linejoin="round"/>
<path d="M83.6787 37.505C88.1662 37.505 91.8064 33.8626 91.8064 29.3456C91.8064 24.8286 88.1662 21.1982 83.6787 21.1982C79.1912 21.1982 75.563 24.8526 75.563 29.3456C75.563 33.8386 79.2031 37.505 83.6787 37.505Z" stroke="white" stroke-width="2" stroke-linejoin="round"/>
<path d="M27 98.8018H77.3175" stroke="white" stroke-width="2" stroke-linejoin="round"/>
<path d="M84.4666 85.4426H71.8872" stroke="white" stroke-width="2" stroke-linejoin="round"/>
<path d="M52.1586 85.4426H39.7104" stroke="white" stroke-width="2" stroke-linejoin="round"/>
</g>
<defs>
<clipPath id="clip0_2556_6165">
<rect width="66" height="80" fill="white" transform="translate(27 20)"/>
</clipPath>
</defs>
</svg>
