<svg width="120" height="120" viewBox="0 0 120 120" fill="none" xmlns="http://www.w3.org/2000/svg">
<g clip-path="url(#clip0_2556_6167)">
<path d="M48.5884 98.507L49.6752 76.7526C49.6752 76.7526 37.3328 67.4506 32.7025 46.8011C31.8985 43.9344 31.7646 41.9038 34.0574 40.6645C35.8737 39.6791 39.1789 39.6193 40.4147 42.8892C40.4147 42.8892 47.6206 65.7336 65.6057 68.5107C79.9134 70.7205 84.9606 76.021 85.9879 84.6361C93.3874 77.738 100.564 70.3323 104.717 64.1807C117.358 45.4424 103.318 21.4932 81.9531 21.4932C72.8713 21.4932 64.8316 25.9575 59.844 32.7959C54.8564 25.9575 46.8315 21.4932 37.7348 21.4932C16.7571 21.4932 3.34272 43.7104 14.5387 63.5835C21.5363 76.021 37.6008 89.8918 48.6033 98.507H48.5884Z" stroke="white" stroke-width="2" stroke-linejoin="round"/>
<path d="M57.6854 50.5338C58.5489 44.7406 63.9385 40.7391 69.7151 41.6051C75.4918 42.4711 79.4819 47.8612 78.6184 53.6544C77.7548 59.4476 72.3801 63.4491 66.5886 62.5831C60.8119 61.7171 56.8218 56.327 57.6854 50.5338Z" stroke="white" stroke-width="2" stroke-linejoin="round"/>
<path d="M43.8691 36.3344C46.0428 35.5132 48.4547 36.6181 49.2736 38.7831L50.5242 42.1127C51.343 44.2926 50.2562 46.7114 48.0825 47.5475C45.9088 48.3687 43.482 47.2638 42.678 45.0989L41.4274 41.7693C40.6086 39.5893 41.6954 37.1705 43.8691 36.3344Z" stroke="white" stroke-width="2" stroke-linejoin="round"/>
<path d="M25.5417 44.6659C27.7154 43.8447 30.1273 44.9496 30.9461 47.1146L32.1968 50.4442C33.0156 52.6241 31.9288 55.0429 29.7551 55.8791C27.5814 56.7003 25.1695 55.5954 24.3506 53.4304L23.1 50.1008C22.2811 47.9209 23.3829 45.5021 25.5417 44.6659Z" stroke="white" stroke-width="2" stroke-linejoin="round"/>
<path d="M73.6606 93.714V86.2336" stroke="white" stroke-width="2" stroke-linejoin="round"/>
</g>
<defs>
<clipPath id="clip0_2556_6167">
<rect width="102" height="80" fill="white" transform="translate(9.00049 20)"/>
</clipPath>
</defs>
</svg>
