<svg width="24" height="24" viewBox="0 0 24 24" fill="none" xmlns="http://www.w3.org/2000/svg">
<path d="M16.9994 24C16.8655 24 16.7363 23.9396 16.6486 23.8375L11.1102 17.3375C10.9948 17.1982 10.9671 17.0079 11.041 16.8407C11.1148 16.6782 11.281 16.5714 11.461 16.5714H14.6917V11.4643C14.6917 11.2089 14.8994 11 15.1532 11H18.8455C19.0994 11 19.3071 11.2089 19.3071 11.4643V16.5714H22.5378C22.7178 16.5714 22.884 16.6782 22.9578 16.8407C23.0316 17.0032 23.0086 17.1982 22.8886 17.3375L17.3502 23.8375C17.2625 23.9396 17.1332 24 16.9994 24ZM12.4625 17.5L16.9994 22.8207L21.5363 17.5H18.8455C18.5917 17.5 18.384 17.2911 18.384 17.0357V11.9286H15.6148V17.0357C15.6148 17.2911 15.4071 17.5 15.1532 17.5H12.4625Z" fill="#8AB61D"/>
<path d="M17.2 0H6.247C5.644 0 5.0815 0.2392 4.654 0.6716L1.657 3.7352C1.234 4.1676 1 4.7472 1 5.3636V21.16C1 22.1766 1.8055 23 2.8 23H13.15C13.3975 23 13.6 22.793 13.6 22.54C13.6 22.287 13.3975 22.08 13.15 22.08H2.8C2.305 22.08 1.9 21.666 1.9 21.16V5.98C1.9 5.727 2.1025 5.52 2.35 5.52H4.6C5.5945 5.52 6.4 4.6966 6.4 3.68V1.38C6.4 1.127 6.6025 0.92 6.85 0.92H17.2C17.695 0.92 18.1 1.334 18.1 1.84V9.66C18.1 9.913 18.3025 10.12 18.55 10.12C18.7975 10.12 19 9.913 19 9.66V1.84C19 0.8234 18.1945 0 17.2 0ZM5.5 3.68C5.5 4.186 5.095 4.6 4.6 4.6H2.35C2.269 4.6 2.188 4.6092 2.1115 4.623C2.1655 4.5356 2.224 4.4574 2.296 4.3838L5.293 1.3202C5.365 1.2466 5.4415 1.1868 5.527 1.1316C5.5135 1.2098 5.5045 1.2926 5.5045 1.3754V3.6754L5.5 3.68Z" fill="#8AB61D"/>
<path d="M13.5625 13H7.4375C7.19687 13 7 13.225 7 13.5C7 13.775 7.19687 14 7.4375 14H13.5625C13.8031 14 14 13.775 14 13.5C14 13.225 13.8031 13 13.5625 13ZM13.5625 10H7.4375C7.19687 10 7 10.225 7 10.5C7 10.775 7.19687 11 7.4375 11H13.5625C13.8031 11 14 10.775 14 10.5C14 10.225 13.8031 10 13.5625 10ZM7.4375 8H13.5625C13.8031 8 14 7.775 14 7.5C14 7.225 13.8031 7 13.5625 7H7.4375C7.19687 7 7 7.225 7 7.5C7 7.775 7.19687 8 7.4375 8Z" fill="#8AB61D"/>
</svg>
