<?xml version="1.0" encoding="utf-8"?>
<!-- Generator: Adobe Illustrator 27.4.1, SVG Export Plug-In . SVG Version: 6.00 Build 0)  -->
<svg version="1.1" id="Outline" xmlns="http://www.w3.org/2000/svg" xmlns:xlink="http://www.w3.org/1999/xlink" x="0px" y="0px"
	 viewBox="0 0 48 48" enable-background="new 0 0 48 48" xml:space="preserve">
<g>
	<path d="M36,14.25h-1.18945c0,0,3.71006-3.71006,3.71971-3.71971c0.66592-0.66593-0.37358-1.74751-1.06053-1.06057
		c0,0-27.93459,27.93459-27.99989,27.99989c-0.67192,0.67192,0.37385,1.74725,1.06043,1.06066L15.31055,33.75H36
		c1.5166,0,2.75-1.2334,2.75-2.75V17C38.75,15.4834,37.5166,14.25,36,14.25z M29.25,24c0,2.89453-2.35547,5.25-5.25,5.25
		c-1.15253,0-2.23248-0.38287-3.12982-1.05963l7.32007-7.32007C28.86713,21.7674,29.25,22.84735,29.25,24z M37.25,31
		c0,0.68945-0.56055,1.25-1.25,1.25H16.81055l2.97888-2.97888C20.97534,30.22736,22.44385,30.75,24,30.75
		c3.72168,0,6.75-3.02832,6.75-6.75c0-1.55615-0.52264-3.02417-1.47882-4.21063L33.31055,15.75H36c0.68945,0,1.25,0.56055,1.25,1.25
		V31z"/>
	<path d="M10.87229,33.50401c0.88693,0.39965,1.47501-0.98062,0.61501-1.36729C11.04004,31.93457,10.75,31.48828,10.75,31V17
		c0-0.68945,0.56055-1.25,1.25-1.25h4.87012c0.95703,0,1.8584-0.51123,2.35254-1.3335l1.24121-2.06104
		C20.68749,11.98193,21.0957,11.75,21.53027,11.75h4.93945c0.43457,0,0.84277,0.23193,1.06738,0.60693l1.25293,2.08057
		c0.08689,0.13571,0.19429,0.30413,0.37001,0.46181c0.71662,0.64309,1.72528-0.4696,1.00011-1.11904
		c-0.02246-0.01953-0.06934-0.09375-0.09766-0.13721l-1.23925-2.05811C28.33008,10.76172,27.42871,10.25,26.46973,10.25h-4.93945
		c-0.95898,0-1.86035,0.51172-2.35254,1.3335l-1.24024,2.06006c-0.2246,0.37402-0.63378,0.60645-1.06738,0.60645H14.75
		c0,0,0-1.24362,0-1.24998c0-0.9559-1.5-0.97503-1.5-0.00002v1.25H12c-1.5166,0-2.75,1.23389-2.75,2.75v14
		C9.25,32.07715,9.88672,33.06055,10.87229,33.50401z"/>
	<path d="M24,18.75c0.52143,0,1.03309,0.07615,1.5184,0.22651c0.91444,0.28331,1.37291-1.14554,0.44352-1.43355
		C25.33203,17.34863,24.67188,17.25,24,17.25c-3.72168,0-6.75,3.02783-6.75,6.75c0,0.67232,0.09862,1.33194,0.29293,1.96178
		c0.28547,0.92534,1.71952,0.48307,1.43363-0.44323C18.82617,25.0332,18.75,24.52197,18.75,24
		C18.75,21.10498,21.10547,18.75,24,18.75z"/>
	<circle cx="34" cy="19" r="0.75"/>
</g>
</svg>
