<svg width="100" height="100" viewBox="0 0 100 100" fill="none" xmlns="http://www.w3.org/2000/svg">
<g clip-path="url(#clip0_241_433)">
<path d="M55.9983 60.9864L65.6927 51.2812C66.4968 50.4762 67.5727 50.0227 68.7279 50.0227C69.8717 50.0227 70.9476 50.4648 71.763 51.2812C73.6317 53.1519 73.224 55.8957 71.763 57.3583L59.226 69.9093C59.3166 69.8866 59.4072 69.8639 59.4978 69.8299C64.4696 68.4127 67.2443 70.2381 68.4561 71.4626C70.1096 73.1179 70.8117 75.6009 70.0643 77.1202C69.532 78.2199 68.2749 78.254 66.3835 78.322C63.9033 78.4013 59.7356 78.5374 54.141 80.9524C43.4499 85.5669 37.2097 85.0794 28.9649 76.8254C20.6295 68.4807 22.2151 58.9002 27.4587 53.6621L45.1034 36.0771C46.655 34.5238 49.2258 34.5578 50.7887 36.1224C52.5328 37.8685 52.1477 40.4082 50.7887 41.7687L41.887 50.6803L54.8431 37.7097C55.6585 36.8934 56.7344 36.4512 57.8783 36.4512C59.0221 36.4512 60.132 36.9274 60.9474 37.7438C62.8161 39.6145 62.4084 42.3583 60.9474 43.8095L49.0219 55.7483L62.6009 42.1542C64.2657 40.4875 66.9838 40.4875 68.6599 42.1542C70.5286 44.0363 70.1435 46.7914 68.6826 48.2426L55.987 60.975L55.9983 60.9864Z" stroke="#8EB72C" stroke-width="2" stroke-linejoin="round"/>
<path d="M69.3736 50.1247L74.0735 45.4648C79.7588 39.7732 79.102 30.5782 71.7179 23.1859C63.4731 14.932 57.2442 14.4331 46.5419 19.0476C40.9472 21.4626 36.7908 21.5986 34.2993 21.678C32.4079 21.7347 31.1622 21.78 30.6185 22.8798C29.8711 24.3991 30.5846 26.8934 32.2267 28.5374C33.4385 29.7506 36.2245 31.576 41.185 30.1701C41.2756 30.1474 41.3662 30.1247 41.4568 30.0907L28.9198 42.6417C27.4588 44.1043 27.0511 46.8367 28.9198 48.7188C29.5879 49.3877 30.4487 49.8072 31.366 49.932" stroke="#8EB72C" stroke-width="2" stroke-linejoin="round"/>
</g>
<defs>
<clipPath id="clip0_241_433">
<rect width="57" height="70" fill="white" transform="translate(22 15)"/>
</clipPath>
</defs>
</svg>
