<svg width="100" height="100" viewBox="0 0 100 100" fill="none" xmlns="http://www.w3.org/2000/svg">
<g clip-path="url(#clip0_2638_23881)">
<path d="M57.839 44.6503H55.6344C55.1278 44.6503 54.7307 44.2333 54.7307 43.7329V29.1943C54.7307 28.6939 55.1278 28.2074 55.6344 28.1379C58.5647 28.1379 61.7414 28.3464 64.4663 28.7495" stroke="#8AB61D" stroke-width="2" stroke-linejoin="round"/>
<path d="M55.3469 50.0847H57.2776" stroke="#8AB61D" stroke-width="2" stroke-linecap="round" stroke-linejoin="round"/>
<path d="M7.6958 50.0847H10.407" stroke="#8AB61D" stroke-width="2" stroke-linecap="round" stroke-linejoin="round"/>
<path d="M28.4814 29.4305C35.7113 27.8877 42.7494 26.8452 49.4178 26.8452C49.4452 26.8452 49.4725 26.8452 49.4999 26.8452V66.7501" stroke="#8AB61D" stroke-width="2" stroke-linecap="round" stroke-linejoin="round"/>
<path d="M28.4814 66.75V29.4304" stroke="#8AB61D" stroke-width="2" stroke-linecap="round" stroke-linejoin="round"/>
<path d="M56.0179 67.2783H22.7854" stroke="#8AB61D" stroke-width="2" stroke-linejoin="round"/>
<path d="M8.25724 43.9275C7.7643 43.9275 7.35352 43.5244 7.35352 43.0101V28.4714C7.35352 27.9711 7.75061 27.4846 8.24355 27.4151C13.2414 27.3873 19.0883 28.0962 21.8268 29.083C22.3061 29.2498 23.2509 29.7919 23.2509 30.8482V43.0101C23.2509 43.5105 22.8538 43.9275 22.3472 43.9275H8.25724Z" stroke="#8AB61D" stroke-width="2" stroke-linecap="round" stroke-linejoin="round"/>
<path d="M26.9753 24.7602V20.7989C26.9753 18.4916 28.7691 16.0036 31.0284 15.406C37.4093 14.0299 43.5163 13.3489 49.5411 13.3489C55.1689 13.3489 60.7829 13.9465 66.6982 15.1419" stroke="#8AB61D" stroke-width="2" stroke-linejoin="round"/>
<path d="M32.7947 19.0615H35.6702" stroke="#8AB61D" stroke-width="2" stroke-linecap="round" stroke-linejoin="round"/>
<path d="M63.5215 19.0615H65.3152" stroke="#8AB61D" stroke-width="2" stroke-linecap="round" stroke-linejoin="round"/>
<path d="M48.0759 17.7969H50.9514" stroke="#8AB61D" stroke-width="2" stroke-linecap="round" stroke-linejoin="round"/>
<path d="M64.9593 23.2453C59.7013 22.4113 54.6075 21.9805 49.5001 21.9805C42.462 21.9805 35.3417 22.7866 27.8791 24.385C27.0986 24.5935 26.3729 25.0105 25.7294 25.5526C25.031 24.9549 24.2368 24.4962 23.3879 24.26C16.2676 22.6476 9.55812 22.5086 3.2868 22.5086C2.78017 22.5086 2.36938 22.9256 2.36938 23.4399V66.3887C2.36938 66.903 2.78017 67.3339 3.2868 67.3339H23.1551V77.9529C23.1551 79.3012 24.2368 80.3992 25.565 80.3992H33.2878C34.616 80.3992 35.6977 79.3012 35.6977 77.9529V73.6442" stroke="#8AB61D" stroke-width="2" stroke-linejoin="round"/>
<path d="M70.9155 37.7283C70.2994 39.2572 69.957 40.4247 69.957 42.2455V49.9597" stroke="#8AB61D" stroke-width="2" stroke-miterlimit="10"/>
<path d="M85.2383 37.6311C85.9092 39.2156 86.2652 40.3276 86.2652 42.2318V46.8602" stroke="#8AB61D" stroke-width="2" stroke-miterlimit="10"/>
<path d="M90.7017 57.4236C91.5232 57.4236 91.3863 56.8676 91.3863 56.117V50.9882C91.3863 48.7087 89.0859 46.8601 86.2515 46.8601C83.4171 46.8601 81.1167 48.7087 81.1167 50.9882V56.117C81.1167 56.8676 80.9934 57.4236 81.815 57.4236" stroke="#8AB61D" stroke-width="2" stroke-linecap="round" stroke-linejoin="round"/>
<path d="M73.1886 53.2399C73.1886 55.0608 71.7372 56.5202 69.9571 56.5202C68.177 56.5202 66.7119 55.0469 66.7119 53.2399C66.7119 51.433 68.1634 49.9597 69.9571 49.9597C71.7509 49.9597 73.1886 51.433 73.1886 53.2399Z" stroke="#8AB61D" stroke-width="2" stroke-miterlimit="10"/>
<path d="M90.5237 88.1828V76.0765C93.6457 76.0765 96.6307 74.214 96.6307 70.4612V51.7945C96.6307 42.051 92.4818 38.1036 84.6358 37.6033L78.4877 42.8711L72.3396 37.6033C64.4937 38.1036 60.3447 42.051 60.3447 51.7945V70.6419C60.3447 73.8387 62.919 76.0765 66.4243 76.0765V88.1828" stroke="#8AB61D" stroke-width="2" stroke-linejoin="round"/>
<path d="M78.4878 33.0998C84.1155 33.0998 88.6889 28.4714 88.6889 22.7449C88.6889 17.0184 84.1292 12.3899 78.4878 12.3899C72.8463 12.3899 68.2866 17.0323 68.2866 22.7449C68.2866 28.4575 72.8463 33.0998 78.4878 33.0998Z" stroke="#8AB61D" stroke-width="2" stroke-linejoin="round"/>
<path d="M32.1648 73.644H56.0177" stroke="#8AB61D" stroke-width="2" stroke-linejoin="round"/>
</g>
<defs>
<clipPath id="clip0_2638_23881">
<rect width="97" height="77.1828" fill="white" transform="translate(1 11)"/>
</clipPath>
</defs>
</svg>
