<svg width="100" height="100" viewBox="0 0 100 100" fill="none" xmlns="http://www.w3.org/2000/svg">
<path d="M81.4286 25.3845H18.5714C13.8376 25.3845 10 29.5173 10 34.6153V80.7691C10 85.8671 13.8376 89.9999 18.5714 89.9999H81.4286C86.1624 89.9999 90 85.8671 90 80.7691V34.6153C90 29.5173 86.1624 25.3845 81.4286 25.3845Z" fill="#F5F5F5"/>
<path opacity="0.5" d="M90 77.6922V80.7691C89.9934 83.2151 89.0882 85.5588 87.4822 87.2884C85.8761 89.0179 83.6998 89.9928 81.4286 89.9999H18.5714C16.3002 89.9928 14.1239 89.0179 12.5178 87.2884C10.9118 85.5588 10.0066 83.2151 10 80.7691V34.6153C10.0066 32.1693 10.9118 29.8256 12.5178 28.096C14.1239 26.3665 16.3002 25.3917 18.5714 25.3845H21.4286V25.7538C21.4311 39.5279 26.5131 52.737 35.5572 62.4768C44.6012 72.2166 56.8669 77.6895 69.6571 77.6922H90Z" fill="#636362"/>
<path d="M55.7144 68.4617H52.8573V65.3848C52.8573 64.5687 52.5563 63.7861 52.0204 63.2091C51.4846 62.632 50.7579 62.3079 50.0001 62.3079C49.2424 62.3079 48.5157 62.632 47.9798 63.2091C47.444 63.7861 47.143 64.5687 47.143 65.3848V68.4617H44.2859C43.5281 68.4617 42.8014 68.7859 42.2655 69.3629C41.7297 69.94 41.4287 70.7226 41.4287 71.5386C41.4287 72.3547 41.7297 73.1373 42.2655 73.7143C42.8014 74.2914 43.5281 74.6156 44.2859 74.6156H47.143V77.6925C47.143 78.5085 47.444 79.2912 47.9798 79.8682C48.5157 80.4452 49.2424 80.7694 50.0001 80.7694C50.7579 80.7694 51.4846 80.4452 52.0204 79.8682C52.5563 79.2912 52.8573 78.5085 52.8573 77.6925V74.6156H55.7144C56.4722 74.6156 57.1989 74.2914 57.7347 73.7143C58.2705 73.1373 58.5716 72.3547 58.5716 71.5386C58.5716 70.7226 58.2705 69.94 57.7347 69.3629C57.1989 68.7859 56.4722 68.4617 55.7144 68.4617Z" fill="#FF5E57"/>
<path opacity="0.5" d="M90 34.6153V43.8461H10V34.6153C10.0066 32.1693 10.9118 29.8256 12.5178 28.096C14.1239 26.3665 16.3002 25.3917 18.5714 25.3845H81.4286C83.6998 25.3917 85.8761 26.3665 87.4822 28.096C89.0882 29.8256 89.9934 32.1693 90 34.6153Z" fill="#636362"/>
<path d="M58.5713 34.6155H41.4284C39.8505 34.6155 38.5713 35.9931 38.5713 37.6924V50.0001C38.5713 51.6994 39.8505 53.077 41.4284 53.077H58.5713C60.1492 53.077 61.4284 51.6994 61.4284 50.0001V37.6924C61.4284 35.9931 60.1492 34.6155 58.5713 34.6155Z" fill="#FF5E57"/>
<path d="M53.2573 74.6149H52.8573V77.6918C52.8573 78.5079 52.5563 79.2905 52.0205 79.8676C51.4847 80.4446 50.7579 80.7688 50.0002 80.7688C49.2424 80.7688 48.5157 80.4446 47.9799 79.8676C47.4441 79.2905 47.143 78.5079 47.143 77.6918V74.6149H44.2859C43.5288 74.6126 42.8034 74.2876 42.268 73.7111C41.7327 73.1346 41.4309 72.3533 41.4288 71.538C41.426 71.0112 41.5511 70.4927 41.7916 70.034C42.0322 69.5752 42.3798 69.1921 42.8002 68.9226C46.063 71.2617 49.5736 73.1727 53.2573 74.6149Z" fill="#D32F2F"/>
<path d="M64.286 31.5385H35.7146C34.9568 31.5385 34.2301 31.2143 33.6943 30.6372C33.1584 30.0602 32.8574 29.2776 32.8574 28.4615V19.2308C32.8599 16.7834 33.7638 14.4371 35.3707 12.7066C36.9776 10.9761 39.1563 10.0027 41.4289 10H58.5717C60.8442 10.0027 63.023 10.9761 64.6299 12.7066C66.2368 14.4371 67.1406 16.7834 67.1431 19.2308V28.4615C67.1431 29.2776 66.8421 30.0602 66.3063 30.6372C65.7705 31.2143 65.0438 31.5385 64.286 31.5385ZM38.5717 25.3846H61.4288V19.2308C61.4279 18.415 61.1265 17.633 60.5909 17.0562C60.0553 16.4794 59.3292 16.1549 58.5717 16.1538H41.4289C40.6714 16.1549 39.9452 16.4794 39.4096 17.0562C38.874 17.633 38.5727 18.415 38.5717 19.2308V25.3846Z" fill="#8AB61D"/>
</svg>
