<svg width="100" height="100" viewBox="0 0 100 100" fill="none" xmlns="http://www.w3.org/2000/svg">
<path d="M48.8196 40.6234L52.2572 38.6016C54.5488 37.2574 55.8128 35.1023 55.8128 32.5583C55.8128 29.4922 53.1667 27.0038 49.9064 27.0038C46.6461 27.0038 44 29.4922 44 32.5583C44 33.1693 44.5316 33.6692 45.1813 33.6692C45.831 33.6692 46.3626 33.1693 46.3626 32.5583C46.3626 30.7253 47.9573 29.2256 49.9064 29.2256C51.8555 29.2256 53.4502 30.7253 53.4502 32.5583C53.4502 34.3913 52.5761 35.791 51.005 36.7131L47.5675 38.7349C45.3703 40.0236 44.0118 42.3453 44.0118 44.7782V45.8891C44.0118 46.5001 44.5434 47 45.1931 47H54.6433C55.293 47 55.8246 46.5001 55.8246 45.8891C55.8246 45.2781 55.293 44.7782 54.6433 44.7782H46.3744C46.3744 43.1007 47.3076 41.5122 48.8196 40.6234ZM68.8187 40.3346H67.6374V28.1147C67.6374 27.6259 67.2949 27.1927 66.7987 27.0483C66.3026 26.9038 65.7592 27.0927 65.4757 27.4926L56.0254 40.8234C55.7892 41.1678 55.7656 41.601 55.9664 41.9676C56.1672 42.3342 56.5688 42.5564 57.0059 42.5564H65.2749V45.8891C65.2749 46.5001 65.8065 47 66.4562 47C67.1059 47 67.6374 46.5001 67.6374 45.8891V42.5564H68.8187C69.4684 42.5564 70 42.0565 70 41.4455C70 40.8345 69.4684 40.3346 68.8187 40.3346ZM65.2749 40.3346H59.2149L65.2749 31.7807V40.3346Z" fill="#8AB61D"/>
<path d="M61.0918 4.32265C60.1932 4.08525 59.2606 4.61092 59.0233 5.5266L58.1416 8.7993C57.9042 9.69803 58.4298 10.6307 59.3454 10.8681C59.498 10.902 59.6336 10.9189 59.7862 10.9189C60.5323 10.9189 61.2274 10.4272 61.4139 9.66411L62.2956 6.39141C62.5329 5.49268 62.0073 4.56005 61.0918 4.32265ZM70.5018 8.22276C69.6879 7.74797 68.6537 8.03624 68.179 8.85017L64.788 14.7173C64.3132 15.5312 64.6015 16.5656 65.4153 17.0404C65.6866 17.193 65.9748 17.2609 66.263 17.2609C66.8565 17.2609 67.416 16.9556 67.7381 16.413L71.1291 10.5459C71.6039 9.73194 71.3156 8.69756 70.5018 8.22276ZM74.9779 19.7196C75.4187 19.7196 75.8426 19.5501 76.1817 19.2279L78.5723 16.8369C79.2336 16.1756 79.2336 15.1073 78.5723 14.446C77.9111 13.7847 76.8429 13.7847 76.1817 14.446L73.791 16.8369C73.1298 17.4983 73.1298 18.5666 73.791 19.2279C74.1301 19.567 74.554 19.7196 74.9949 19.7196H74.9779ZM75.9613 27.5877C76.2834 28.1303 76.8429 28.4355 77.4364 28.4355C77.7246 28.4355 78.0128 28.3677 78.2841 28.2151L84.1505 24.8237C84.9644 24.3489 85.2357 23.3145 84.7779 22.5006C84.3031 21.6866 83.2689 21.4153 82.455 21.8732L76.5886 25.2646C75.7748 25.7394 75.5035 26.7738 75.9613 27.5877ZM82.1159 33.6583C82.3194 34.4214 82.9976 34.9131 83.7436 34.9131C83.8962 34.9131 84.0319 34.8962 84.1844 34.8623L87.4568 33.9805C88.3554 33.7431 88.8979 32.8105 88.6606 31.9117C88.4232 31.013 87.4907 30.4704 86.5921 30.7078L83.3197 31.5895C82.4211 31.8269 81.8786 32.7596 82.1159 33.6583ZM88.3045 40.3055H81.5225C80.59 40.3055 79.827 41.0685 79.827 42.0012C79.827 42.9338 80.59 43.6969 81.5225 43.6969H88.3045C89.237 43.6969 90 42.9338 90 42.0012C90 41.0685 89.237 40.3055 88.3045 40.3055ZM87.4737 50.0218L84.2014 49.1401C83.3028 48.9027 82.3703 49.4283 82.1329 50.344C81.8955 51.2427 82.4211 52.1754 83.3367 52.4128L86.609 53.2945C86.7616 53.3285 86.8972 53.3454 87.0498 53.3454C87.7959 53.3454 88.4741 52.8537 88.6775 52.0906C88.9149 51.1919 88.3893 50.2592 87.4737 50.0218ZM25.4185 25.2646L19.5521 21.8732C18.7383 21.3984 17.704 21.6866 17.2293 22.5006C16.7545 23.3145 17.0428 24.3489 17.8566 24.8237L23.723 28.2151C23.9943 28.3677 24.2825 28.4355 24.5708 28.4355C25.1642 28.4355 25.7237 28.1303 26.0459 27.5877C26.5206 26.7738 26.2324 25.7394 25.4185 25.2646ZM84.1505 59.1786L78.2841 55.7872C77.4703 55.3124 76.436 55.6007 75.9613 56.4146C75.4865 57.2286 75.7748 58.2629 76.5886 58.7377L82.455 62.1292C82.7263 62.2818 83.0146 62.3496 83.3028 62.3496C83.8962 62.3496 84.4557 62.0444 84.7779 61.5017C85.2526 60.6878 84.9644 59.6534 84.1505 59.1786ZM25.8254 14.429C25.1642 13.7677 24.096 13.7677 23.4348 14.429C22.7735 15.0904 22.7735 16.1587 23.4348 16.82L25.8254 19.2109C26.1645 19.5501 26.5884 19.7027 27.0292 19.7027C27.4701 19.7027 27.8939 19.5331 28.233 19.2109C28.8943 18.5496 28.8943 17.4813 28.233 16.82L25.8424 14.429H25.8254ZM76.1817 64.7914C75.5205 64.1301 74.4523 64.1301 73.791 64.7914C73.1298 65.4527 73.1298 66.521 73.791 67.1823L76.1817 69.5733C76.5208 69.9124 76.9447 70.065 77.3855 70.065C77.8263 70.065 78.2502 69.8955 78.5893 69.5733C79.2506 68.912 79.2506 67.8437 78.5893 67.1823L76.1987 64.7914H76.1817ZM33.8282 8.85017C33.3534 8.03624 32.3192 7.76492 31.5054 8.22276C30.6915 8.69756 30.4202 9.73194 30.878 10.5459L34.269 16.413C34.5912 16.9556 35.1507 17.2609 35.7441 17.2609C36.0323 17.2609 36.3206 17.193 36.5918 17.0404C37.4057 16.5656 37.677 15.5312 37.2192 14.7173L33.8282 8.85017ZM67.7381 67.5893C67.2634 66.7754 66.2291 66.5041 65.4153 66.9619C64.6015 67.4367 64.3302 68.4711 64.788 69.285L68.179 75.1521C68.5011 75.6948 69.0606 76 69.654 76C69.9423 76 70.2305 75.9322 70.5018 75.7796C71.3156 75.3048 71.5869 74.2704 71.1291 73.4564L67.7381 67.5893ZM42.9839 5.5266C42.7465 4.62787 41.814 4.08525 40.9154 4.32265C40.0167 4.56005 39.4742 5.49268 39.7116 6.39141L40.5932 9.66411C40.7967 10.4272 41.4749 10.9189 42.2209 10.9189C42.3735 10.9189 42.5091 10.902 42.6617 10.8681C43.5603 10.6307 44.1029 9.69803 43.8655 8.7993L42.9839 5.5266ZM51.0036 3C50.071 3 49.3081 3.76307 49.3081 4.6957V11.4785C49.3081 12.4111 50.071 13.1742 51.0036 13.1742C51.9361 13.1742 52.6991 12.4111 52.6991 11.4785V4.6957C52.6991 3.76307 51.9361 3 51.0036 3Z" fill="#8AB61D"/>
<g clip-path="url(#clip0_3195_1113)">
<path d="M25.2087 85.9487L15.4934 96.159" stroke="#8AB61D" stroke-width="2" stroke-linecap="round" stroke-linejoin="round"/>
<path d="M53.4347 72.9292L37.5864 56.2598" stroke="#8AB61D" stroke-width="2" stroke-linecap="round" stroke-linejoin="round"/>
<path d="M58.2005 62.2229L47.7656 51.2473" stroke="#8AB61D" stroke-width="2" stroke-linecap="round" stroke-linejoin="round"/>
<path d="M37.8023 66.6048L35.6514 64.334" stroke="#8AB61D" stroke-width="2" stroke-linecap="round" stroke-linejoin="round"/>
<path d="M27.3516 77.0167L25.4485 75.0234" stroke="#8AB61D" stroke-width="2" stroke-linecap="round" stroke-linejoin="round"/>
<path d="M32.4371 71.6677L30.55 69.6829" stroke="#8AB61D" stroke-width="2" stroke-linecap="round" stroke-linejoin="round"/>
<path d="M42.792 61.735L50.2683 53.8796" stroke="#8AB61D" stroke-width="2" stroke-linecap="round" stroke-linejoin="round"/>
<path d="M48.2212 67.4541L55.6975 59.5903" stroke="#8AB61D" stroke-width="2" stroke-linecap="round" stroke-linejoin="round"/>
<path d="M50.5483 69.9772L31.5176 89.994C25.9923 87.6223 23.6174 85.1244 21.3625 79.3128L40.4332 59.2539" stroke="#8AB61D" stroke-width="2" stroke-linejoin="round"/>
<path d="M15.5812 37.8411H29.5824C30.1981 37.8411 30.6938 38.3625 30.6938 39.0101V45.831C30.6938 46.4786 30.1981 47 29.5824 47H15.5892C14.9735 47 14.4778 46.4786 14.4778 45.831V39.0101C14.4778 38.3625 14.9735 37.8411 15.5892 37.8411H15.5812Z" stroke="#8AB61D" stroke-width="2" stroke-linejoin="round"/>
<path d="M10.7996 58.7578H21.7542V74.9731H10.7996" stroke="#8AB61D" stroke-width="2" stroke-linejoin="round"/>
<path d="M11.0396 64.2498H18.9557" stroke="#8AB61D" stroke-width="2" stroke-linejoin="round"/>
<path d="M11.0396 68.7158H17.3405" stroke="#8AB61D" stroke-width="2" stroke-linejoin="round"/>
<path d="M29.0146 47.0083V50.835C32.325 52.4919 34.372 55.3094 34.372 58.026V62.2228" stroke="#8AB61D" stroke-width="2" stroke-linejoin="round"/>
<path d="M16.1569 47.0083V50.7341C11.855 52.8956 10.7996 56.9663 10.7996 58.026V78.9763C10.7996 80.3557 11.863 81.4658 13.1664 81.4658H20.059" stroke="#8AB61D" stroke-width="2" stroke-linejoin="round"/>
<path d="M25.4885 75.0234H45.8066" stroke="#8AB61D" stroke-width="2" stroke-linejoin="round"/>
</g>
<defs>
<clipPath id="clip0_3195_1113">
<rect width="49" height="60" fill="white" transform="translate(10 37)"/>
</clipPath>
</defs>
</svg>
