<svg width="100" height="100" viewBox="0 0 100 100" fill="none" xmlns="http://www.w3.org/2000/svg">
<g clip-path="url(#clip0_2638_23916)">
<path d="M75.5438 80.6006H57.8703C54.0104 80.6006 50.8716 83.7257 50.8716 87.6003C50.8716 91.4749 53.9963 94.6 57.8703 94.6H75.5438C79.4037 94.6 82.5425 91.4749 82.5425 87.6003C82.5425 83.7257 79.4179 80.6006 75.5438 80.6006Z" stroke="#8AB61D" stroke-width="2" stroke-miterlimit="10"/>
<path d="M66.707 80.6006V94.5858" stroke="#8AB61D" stroke-width="2" stroke-miterlimit="10"/>
<path d="M42.0488 5.41406C58.4215 5.41406 71.6837 10.3209 71.6837 16.4015V24.6314C71.6837 30.6978 58.4215 35.6188 42.0488 35.6188C25.676 35.6188 12.4138 30.6978 12.4138 24.6314V16.4015C12.4138 10.3209 25.676 5.41406 42.0488 5.41406Z" stroke="#8AB61D" stroke-width="2" stroke-miterlimit="10"/>
<path d="M54.0811 21.9729C56.2584 21.7891 57.333 21.5629 59.5245 20.8275C59.7366 20.7568 59.9628 20.7851 60.1466 20.9265C60.3304 21.0538 60.4294 21.2659 60.4294 21.478V27.205C60.4294 27.502 60.2456 27.7565 59.9628 27.8555C57.6723 28.6191 56.4847 28.8737 54.1942 29.0575C54.18 29.0575 54.1518 29.0575 54.1376 29.0575C53.968 29.0575 53.7983 29.0009 53.671 28.8737C53.5297 28.7464 53.4448 28.5626 53.4448 28.3646V22.6376C53.4448 22.284 53.7135 21.9871 54.0811 21.9588V21.9729Z" stroke="#8AB61D" stroke-width="2" stroke-miterlimit="10"/>
<path d="M23.9512 20.9265C24.135 20.7992 24.3613 20.7568 24.5733 20.8275C26.7649 21.5628 27.8394 21.7891 30.0168 21.9729C30.3703 22.0012 30.653 22.2982 30.653 22.6517V28.3787C30.653 28.5625 30.5682 28.7605 30.4268 28.8878C30.2996 29.0009 30.1299 29.0716 29.9602 29.0716C29.9461 29.0716 29.9178 29.0716 29.9037 29.0716C27.6132 28.8878 26.4255 28.6332 24.135 27.8696C23.8523 27.7706 23.6685 27.5161 23.6685 27.2192V21.4921C23.6685 21.28 23.7816 21.0679 23.9512 20.9406V20.9265Z" stroke="#8AB61D" stroke-width="2" stroke-miterlimit="10"/>
<path d="M15.6375 38.8711C19.1156 42.6043 28.9421 45.5314 40.3662 45.5314C45.4845 45.5314 50.0938 44.9941 53.9395 44.0608V70.7869C50.0796 71.706 45.4845 72.2575 40.3662 72.2575C28.9421 72.2575 20.0205 69.599 16.5565 65.8659" stroke="#8AB61D" stroke-width="2" stroke-linejoin="round"/>
<path d="M45.6401 86.6104C44.4949 86.6529 43.2648 86.6811 42.0489 86.6811C27.2597 86.6811 16.6414 82.2409 16.6414 76.7543L15.3972 29.4392" stroke="#8AB61D" stroke-width="2" stroke-miterlimit="10"/>
<path d="M68.7147 29.425L67.7815 66.0073" stroke="#8AB61D" stroke-width="2" stroke-miterlimit="10"/>
<path d="M83.4756 80.7845C85.8509 79.2007 87.1092 76.2453 86.3882 73.3182C85.4833 69.5708 81.6941 67.2518 77.9473 68.1709L60.7686 72.3283C58.1671 72.9646 56.2725 74.9585 55.6362 77.3766" stroke="#8AB61D" stroke-width="2" stroke-miterlimit="10"/>
<path d="M69.365 70.2495L70.8354 76.3583" stroke="#8AB61D" stroke-width="2" stroke-miterlimit="10"/>
</g>
<defs>
<clipPath id="clip0_2638_23916">
<rect width="77" height="92" fill="white" transform="translate(11 4)"/>
</clipPath>
</defs>
</svg>
