<svg width="100" height="100" viewBox="0 0 100 100" fill="none" xmlns="http://www.w3.org/2000/svg">
<g clip-path="url(#clip0_2638_23901)">
<path d="M73.2464 51.4855L81.6238 43.0717C90.183 34.4753 90.183 20.5537 81.6238 11.9573C73.0646 3.36091 59.2032 3.36091 50.644 11.9573L10.9231 51.8506C2.36386 60.447 2.36386 74.3686 10.9231 82.965C19.4823 91.5614 33.3437 91.5614 41.9029 82.965L47.0839 77.7615" stroke="#8AB61D" stroke-width="2" stroke-miterlimit="10"/>
<path d="M50.25 67.309C50.25 78.9636 71.0042 92.6113 71.8829 93.1894C72.1859 93.3872 72.5191 93.4785 72.8676 93.4785C73.216 93.4785 73.519 93.3872 73.8068 93.2047C74.6855 92.6569 95.47 79.6026 95.47 67.2938C95.47 59.9146 89.4861 53.9199 82.1539 53.9199C78.6848 53.9199 75.3369 55.3197 72.8676 57.7388C70.3983 55.3197 67.0503 53.9199 63.566 53.9199C56.2187 53.9199 50.25 59.9146 50.25 67.2938V67.309Z" stroke="#8AB61D" stroke-width="2" stroke-linejoin="round"/>
<path d="M65.4444 60.3711C60.7634 60.3711 56.9609 64.19 56.9609 68.8914" stroke="#8AB61D" stroke-width="2" stroke-miterlimit="10" stroke-linecap="round"/>
<path d="M17.8462 60.7058L18.1795 60.3711" stroke="#8AB61D" stroke-width="2" stroke-miterlimit="10" stroke-linecap="round"/>
<path d="M25.4661 68.3589L25.7993 68.0242" stroke="#8AB61D" stroke-width="2" stroke-miterlimit="10" stroke-linecap="round"/>
<path d="M15.498 70.2759L15.8313 69.9412" stroke="#8AB61D" stroke-width="2" stroke-miterlimit="10" stroke-linecap="round"/>
<path d="M23.1179 78.0962L23.4512 77.7615" stroke="#8AB61D" stroke-width="2" stroke-miterlimit="10" stroke-linecap="round"/>
<path d="M33.0862 76.012L33.4195 75.6772" stroke="#8AB61D" stroke-width="2" stroke-miterlimit="10" stroke-linecap="round"/>
<path d="M45.5235 69.3933L24.4512 48.2295" stroke="#8AB61D" stroke-width="2" stroke-miterlimit="10"/>
<path d="M60.3545 18.0129L60.0364 18.3325" stroke="#8AB61D" stroke-width="2" stroke-miterlimit="10" stroke-linecap="round"/>
<path d="M67.9744 25.666L67.6562 26.0007" stroke="#8AB61D" stroke-width="2" stroke-miterlimit="10" stroke-linecap="round"/>
<path d="M69.8831 15.6545L69.5498 15.9893" stroke="#8AB61D" stroke-width="2" stroke-miterlimit="10" stroke-linecap="round"/>
<path d="M77.6697 23.3076L77.3364 23.6271" stroke="#8AB61D" stroke-width="2" stroke-miterlimit="10" stroke-linecap="round"/>
<path d="M75.5943 33.3191L75.2761 33.6538" stroke="#8AB61D" stroke-width="2" stroke-miterlimit="10" stroke-linecap="round"/>
<path d="M47.9321 24.6313L69.0045 45.8104" stroke="#8AB61D" stroke-width="2" stroke-miterlimit="10"/>
</g>
<defs>
<clipPath id="clip0_2638_23901">
<rect width="94" height="91" fill="white" transform="translate(3 4)"/>
</clipPath>
</defs>
</svg>
