<svg width="100" height="100" viewBox="0 0 100 100" fill="none" xmlns="http://www.w3.org/2000/svg">
<g clip-path="url(#clip0_241_417)">
<path d="M54.468 29.6706C53.3233 28.0682 51.4449 27.0297 49.3316 27.0297C44.4593 27.0297 41.3481 32.2226 43.931 36.8813C46.5139 41.5104 54.468 47 54.468 47C54.468 47 62.2754 40.9169 64.8876 37C67.8227 32.6083 64.5647 27 59.6044 27C57.4912 27 55.6421 28.0386 54.468 29.641V29.6706Z" stroke="#222C34" stroke-width="2" stroke-linejoin="round"/>
<path d="M75.7084 38.7188V10.6375C75.7084 7.90978 73.7454 5.52306 71.1961 5.19574C65.3887 4.65021 60.2629 4.37744 55.1234 4.37744C49.984 4.37744 44.831 4.65021 38.969 5.20938C36.4606 5.5367 34.4976 7.92342 34.4976 10.6511V69.9916C34.4976 72.7193 36.4606 75.106 39.0099 75.4333C44.8173 75.9925 50.3657 76.2516 55.955 76.2516C61.5443 76.2516 64.7616 76.1016 70.6099 75.5424C73.2273 75.1469 76.0765 73.3603 76.0765 70.7826" stroke="#222C34" stroke-width="2" stroke-miterlimit="10"/>
<path d="M84.3923 51.6617C83.6152 49.7387 81.8703 48.8386 80.2071 48.8386C79.6209 48.8386 79.0347 48.9477 78.5167 49.1795L73.6908 51.2935C71.4005 52.2754 70.3236 54.9895 71.2778 57.3625C72.0549 59.2855 73.7998 60.1857 75.463 60.1857C76.0492 60.1857 76.6354 60.0766 77.1534 59.8447L81.9793 57.7308C84.2696 56.7488 85.3465 54.0348 84.3923 51.6617Z" stroke="#222C34" stroke-width="2" stroke-miterlimit="10"/>
<path d="M77.2214 70.4826L81.5838 68.5732C83.6559 67.6868 84.6239 65.2182 83.765 63.0906C83.0561 61.3586 81.4884 60.5266 79.9888 60.5266C79.4572 60.5266 78.9391 60.6357 78.462 60.8403L74.0996 62.7497C72.0275 63.6498 71.0596 66.0911 71.9184 68.2323C72.6273 69.978 74.195 70.7963 75.6946 70.7963C76.2263 70.7963 76.7443 70.6872 77.2214 70.4963V70.4826Z" stroke="#222C34" stroke-width="2" stroke-miterlimit="10"/>
<path d="M71.3052 45.688C72.0822 47.6111 73.8272 48.5112 75.4903 48.5112C76.0765 48.5112 76.6627 48.4021 77.1808 48.1702L80.4526 46.67C82.7428 45.6744 83.8198 42.9604 82.8655 40.6009C82.0885 38.6779 80.3435 37.7642 78.6803 37.7642C78.0941 37.7642 77.5079 37.8733 76.9899 38.1051L73.7181 39.6053C71.4279 40.5873 70.3509 43.3013 71.3052 45.6744V45.688Z" stroke="#222C34" stroke-width="2" stroke-miterlimit="10"/>
<path d="M50.1748 70.1962H60.0311" stroke="#222C34" stroke-width="2" stroke-miterlimit="10" stroke-linecap="round"/>
<path d="M53.3921 10.2556H56.8002" stroke="#222C34" stroke-width="2" stroke-miterlimit="10" stroke-linecap="round"/>
<path d="M34.4976 64.5772H72.1095" stroke="#222C34" stroke-width="2" stroke-miterlimit="10"/>
<path d="M34.4976 15.1382H75.7084" stroke="#222C34" stroke-width="2" stroke-miterlimit="10"/>
<path d="M75.7085 33.5499L84.515 29.7721C87.1052 28.6537 88.3185 25.5851 87.2415 22.912C86.3554 20.7435 84.4741 19.1751 81.2705 20.0888C80.4798 20.3207 76.7445 21.63 75.6948 22.08" stroke="#222C34" stroke-width="2" stroke-miterlimit="10"/>
<path d="M41.1094 95.1544C43.6723 91.8948 46.0034 88.8126 47.912 86.0849" stroke="#222C34" stroke-width="2" stroke-linejoin="round"/>
<path d="M10.9136 72.692C14.608 69.3779 17.7162 66.3366 19.4611 64.0862" stroke="#222C34" stroke-width="2" stroke-linejoin="round"/>
<path d="M61.2036 79.8249C54.292 87.6533 47.2713 86.4395 43.6587 85.0757" stroke="#222C34" stroke-width="2" stroke-linecap="round" stroke-linejoin="round"/>
<path d="M34.4974 21.9164C33.2977 15.5609 24.9956 15.5609 23.0734 16.6929C20.8786 18.0022 26.8768 29.9494 21.2466 44.2288C18.4656 51.2798 15.4392 61.4813 21.7919 67.2367" stroke="#222C34" stroke-width="2" stroke-linecap="round" stroke-linejoin="round"/>
</g>
<defs>
<clipPath id="clip0_241_417">
<rect width="79" height="93" fill="white" transform="translate(10 3)"/>
</clipPath>
</defs>
</svg>
