<svg width="100" height="100" viewBox="0 0 100 100" fill="none" xmlns="http://www.w3.org/2000/svg">
<path opacity="0.6" d="M58.1178 62.6566C57.6741 62.5847 57.2192 62.6342 56.8014 62.7999C56.3836 62.9656 56.0185 63.2414 55.7447 63.5979C53.4765 66.5384 51.4062 69.0336 50 70.6851C48.595 69.0336 46.5235 66.5384 44.2542 63.5979C43.9806 63.2415 43.6157 62.9658 43.1981 62.8001C42.7804 62.6344 42.3258 62.5848 41.8822 62.6566C31.4685 64.3156 25 68.8541 25 74.4999C25 81.6264 35.747 86.9999 50 86.9999C64.253 86.9999 75 81.6264 75 74.4999C75 68.8541 68.5303 64.3156 58.1178 62.6566Z" fill="#8AB61D"/>
<path d="M67.125 65.225C63.5184 70.1752 59.6635 74.9397 55.575 79.5C54.8746 80.2863 54.0158 80.9156 53.055 81.3464C52.0941 81.7773 51.053 82.0001 50 82.0001C48.947 82.0001 47.9059 81.7773 46.945 81.3464C45.9842 80.9156 45.1254 80.2863 44.425 79.5C40.3365 74.9397 36.4816 70.1752 32.875 65.225C35.7526 63.9856 38.7773 63.1202 41.875 62.65C42.3198 62.5788 42.7755 62.6296 43.1938 62.7969C43.612 62.9642 43.977 63.2417 44.25 63.6C46.525 66.55 48.6 69.025 50 70.675C51.4 69.025 53.475 66.55 55.75 63.6C56.0215 63.2399 56.3863 62.9611 56.8049 62.7936C57.2236 62.6261 57.6801 62.5765 58.125 62.65C61.2227 63.1202 64.2474 63.9856 67.125 65.225Z" fill="#8AB61D"/>
<path d="M50 12C43.3718 12.0073 37.0173 14.6436 32.3304 19.3304C27.6436 24.0173 25.0073 30.3718 25 37C25 50.009 45.7715 73.5308 48.1398 76.17C48.3742 76.4311 48.661 76.64 48.9815 76.783C49.302 76.9259 49.6491 76.9998 50 76.9998C50.3509 76.9998 50.698 76.9259 51.0185 76.783C51.339 76.64 51.6258 76.4311 51.8603 76.17C54.2285 73.5308 75 50.009 75 37C74.9925 30.3719 72.3561 24.0174 67.6693 19.3307C62.9826 14.6439 56.6281 12.0075 50 12Z" fill="#F5F5F5"/>
<path opacity="0.5" d="M67.025 56.4749C62.4384 63.3918 57.3674 69.975 51.85 76.1749C51.6168 76.4345 51.3315 76.6422 51.0128 76.7843C50.6941 76.9264 50.349 76.9999 50 76.9999C49.651 76.9999 49.3059 76.9264 48.9872 76.7843C48.6685 76.6422 48.3832 76.4345 48.15 76.1749C45.775 73.5249 25 49.9999 25 36.9999C25.0053 31.6775 26.7073 26.4955 29.8588 22.2065C33.0104 17.9175 37.4473 14.745 42.525 13.1499C42.975 22.1999 46.175 45.6999 67.025 56.4749Z" fill="#58595E"/>
<path d="M57.5 34.5H52.5V29.5C52.5 28.837 52.2366 28.2011 51.7678 27.7322C51.2989 27.2634 50.663 27 50 27C49.337 27 48.7011 27.2634 48.2322 27.7322C47.7634 28.2011 47.5 28.837 47.5 29.5V34.5H42.5C41.837 34.5 41.2011 34.7634 40.7322 35.2322C40.2634 35.7011 40 36.337 40 37C40 37.663 40.2634 38.2989 40.7322 38.7678C41.2011 39.2366 41.837 39.5 42.5 39.5H47.5V44.5C47.5 45.163 47.7634 45.7989 48.2322 46.2678C48.7011 46.7366 49.337 47 50 47C50.663 47 51.2989 46.7366 51.7678 46.2678C52.2366 45.7989 52.5 45.163 52.5 44.5V39.5H57.5C58.163 39.5 58.7989 39.2366 59.2678 38.7678C59.7366 38.2989 60 37.663 60 37C60 36.337 59.7366 35.7011 59.2678 35.2322C58.7989 34.7634 58.163 34.5 57.5 34.5Z" fill="#FF5E57"/>
<path d="M52.5 43.9V44.5C52.5 45.163 52.2366 45.7989 51.7678 46.2678C51.2989 46.7366 50.663 47 50 47C49.337 47 48.7011 46.7366 48.2322 46.2678C47.7634 45.7989 47.5 45.163 47.5 44.5V39.5H42.5C41.837 39.5 41.2011 39.2366 40.7322 38.7678C40.2634 38.2989 40 37.663 40 37C40 36.337 40.2634 35.7011 40.7322 35.2322C41.2011 34.7634 41.837 34.5 42.5 34.5H47.275C48.6544 37.8214 50.4073 40.9751 52.5 43.9Z" fill="#D32F2F"/>
</svg>
