<svg width="100" height="100" viewBox="0 0 100 100" fill="none" xmlns="http://www.w3.org/2000/svg">
<g clip-path="url(#clip0_241_437)">
<path d="M41.9365 73.0766C42.5129 74.7176 45.4772 76.9211 49.5119 75.5263L50.8293 69.9823C52.6173 71.5998 55.9226 70.2284 55.9226 70.2284L58.2517 57.5112" stroke="#222C34" stroke-width="2" stroke-linejoin="round"/>
<path d="M61.0394 55.1084C61.7923 55.6007 63.8743 56.9017 64.7801 57.4526C65.2741 57.7691 66.0857 57.8394 66.5915 57.5112C68.803 56.0344 87.8942 42.9538 87.8236 32.0299C87.7766 24.8919 81.9069 19.1135 74.7315 19.1721C71.3791 19.1955 67.9207 20.731 65.5211 23.0986C63.0862 20.7661 59.6044 19.2776 56.2519 19.301C49.0883 19.3479 43.2892 25.1966 43.3362 32.3347C43.3597 36.3198 45.6653 40.8089 50.194 45.6731C51.1233 46.7866 51.8761 47.5484 52.0996 47.8063" stroke="#222C34" stroke-width="2" stroke-linejoin="round"/>
<path d="M46.6885 41.3364L41.4422 56.0579L56.287 44.5596C57.6515 43.5282 60.5805 42.7898 63.2272 45.8958C65.2975 48.322 65.1445 51.6625 63.2742 53.1862L49.5469 64.9892L38.9838 76.2061C37.2429 78.0932 35.1608 79.4411 31.0908 79.699L12.3643 79.8279" stroke="#222C34" stroke-width="2" stroke-linejoin="round"/>
<path d="M11.2939 59.035L18.9399 57.101L33.7023 37.0817C33.7023 37.0817 40.8777 32.1237 43.4656 30.4476" stroke="#222C34" stroke-width="2" stroke-linejoin="round"/>
</g>
<defs>
<clipPath id="clip0_241_437">
<rect width="78" height="63" fill="white" transform="translate(11 18)"/>
</clipPath>
</defs>
</svg>
