<svg width="100" height="100" viewBox="0 0 100 100" fill="none" xmlns="http://www.w3.org/2000/svg">
<path d="M99.9999 42.5715V74.7144C99.9999 76.6786 98.3927 78.2858 96.4284 78.2858H85.7141C83.7499 78.2858 82.1427 76.7144 82.1427 74.7501C82.1427 72.7858 80.5356 71.1786 78.5713 71.1786C76.607 71.1786 74.9999 72.7858 74.9999 74.7501C74.9999 76.7144 73.3927 78.2858 71.4284 78.2858H53.5713V24.7144H82.1427C83.107 24.7144 83.9999 25.1072 84.6784 25.7501L98.9641 40.0358C99.607 40.7144 99.9999 41.6072 99.9999 42.5715Z" fill="#F5F5F5"/>
<path d="M57.1429 17.5714V78.2857H32.1429C30.1786 78.2857 28.6071 76.75 28.5714 74.7857C28.5714 74.7857 28.5714 74.7857 28.5714 74.75C28.5714 72.7857 26.9643 71.1786 25 71.1786C23.0357 71.1786 21.4286 72.7857 21.4286 74.75C21.4286 76.7143 19.8571 78.2857 17.8929 78.2857C17.8929 78.2857 17.8929 78.2857 17.8571 78.2857H3.57143C1.60714 78.2857 0 76.6786 0 74.7143V17.5714C0 15.6071 1.60714 14 3.57143 14H53.5714C55.5357 14 57.1429 15.6071 57.1429 17.5714Z" fill="#F5F5F5"/>
<path d="M35.7141 35.4285H32.1426V31.8571C32.1426 29.8928 30.5355 28.2856 28.5712 28.2856C26.6069 28.2856 24.9998 29.8928 24.9998 31.8571V35.4285H21.4284C19.4641 35.4285 17.8569 37.0356 17.8569 38.9999C17.8569 40.9642 19.4641 42.5714 21.4284 42.5714H24.9998V46.1428C24.9998 48.1071 26.6069 49.7142 28.5712 49.7142C30.5355 49.7142 32.1426 48.1071 32.1426 46.1428V42.5714H35.7141C37.6784 42.5714 39.2855 40.9642 39.2855 38.9999C39.2855 37.0356 37.6784 35.4285 35.7141 35.4285Z" fill="#E84040"/>
<path d="M60.7145 24.7144H57.1431V78.2858H60.7145V24.7144Z" fill="#636362"/>
<path opacity="0.5" d="M57.1429 72.3214V78.2857H32.1429C30.1786 78.2857 28.6071 76.75 28.5714 74.7857C28.5714 74.7857 28.5714 74.7857 28.5714 74.75C28.5714 72.7857 26.9643 71.1786 25 71.1786C23.0357 71.1786 21.4286 72.7857 21.4286 74.75C21.4286 76.7143 19.8571 78.2857 17.8929 78.2857C17.8929 78.2857 17.8929 78.2857 17.8571 78.2857H3.57143C1.60714 78.2857 0 76.6786 0 74.7143V17.5714C0 15.6071 1.60714 14 3.57143 14H7.53571C10.4643 41.8214 30.1786 64.9643 57.1429 72.3214Z" fill="#636362"/>
<path opacity="0.5" d="M74.9999 74.7144C74.9999 76.7144 73.3927 78.2858 71.4284 78.2858H53.5713V71.2144C60.4641 73.5358 67.7141 74.7144 74.9999 74.7144Z" fill="#636362"/>
<path opacity="0.5" d="M100 74.7144C100 76.6786 98.3931 78.2858 96.4288 78.2858H85.7145C83.7502 78.2858 82.1431 76.7144 82.1431 74.7501L100 74.7144Z" fill="#636362"/>
<path d="M78.5712 85.4286C84.4886 85.4286 89.2855 80.6316 89.2855 74.7143C89.2855 68.7969 84.4886 64 78.5712 64C72.6539 64 67.8569 68.7969 67.8569 74.7143C67.8569 80.6316 72.6539 85.4286 78.5712 85.4286Z" fill="#8AB61D"/>
<path d="M89.2855 74.7144C89.2855 80.643 84.4998 85.4287 78.5712 85.4287C72.6426 85.4287 67.8569 80.643 67.8569 74.7144C67.8569 74.5715 67.8569 74.4644 67.8926 74.3215C70.2498 74.5715 72.6426 74.7144 74.9998 74.7144H89.2855Z" fill="#8AB61D"/>
<path opacity="0.2" d="M60.7145 24.7144H57.1431V78.2858H60.7145V24.7144Z" fill="#636362"/>
<path d="M60.7145 73.1787V78.2858H57.1431V72.3215C58.3216 72.643 59.5002 72.9287 60.7145 73.1787Z" fill="#636362"/>
<path d="M24.9999 85.4286C30.9173 85.4286 35.7142 80.6316 35.7142 74.7143C35.7142 68.7969 30.9173 64 24.9999 64C19.0826 64 14.2856 68.7969 14.2856 74.7143C14.2856 80.6316 19.0826 85.4286 24.9999 85.4286Z" fill="#8AB61D"/>
</svg>
