<svg width="81" height="81" viewBox="0 0 81 81" fill="none" xmlns="http://www.w3.org/2000/svg">
<path d="M21.2929 31.2929C20.9024 31.6834 20.9024 32.3166 21.2929 32.7071C21.6834 33.0976 22.3166 33.0976 22.7071 32.7071L21.2929 31.2929ZM40 14L40.7071 13.2929C40.3166 12.9024 39.6834 12.9024 39.2929 13.2929L40 14ZM57.2929 32.7071C57.6834 33.0976 58.3166 33.0976 58.7071 32.7071C59.0976 32.3166 59.0976 31.6834 58.7071 31.2929L57.2929 32.7071ZM26.5 15.5V14.5C25.9477 14.5 25.5 14.9477 25.5 15.5H26.5ZM31.5 15.5H32.5C32.5 14.9477 32.0523 14.5 31.5 14.5V15.5ZM39.2929 14.7071L57.2929 32.7071L58.7071 31.2929L40.7071 13.2929L39.2929 14.7071ZM22.7071 32.7071L27.2071 28.2071L25.7929 26.7929L21.2929 31.2929L22.7071 32.7071ZM27.5 27.5V15.5H25.5V27.5H27.5ZM26.5 16.5H31.5V14.5H26.5V16.5ZM27.2071 28.2071L32.2071 23.2071L30.7929 21.7929L25.7929 26.7929L27.2071 28.2071ZM32.2071 23.2071L40.7071 14.7071L39.2929 13.2929L30.7929 21.7929L32.2071 23.2071ZM30.5 15.5V22.5H32.5V15.5H30.5Z" fill="#8EB72C"/>
<path d="M23.2037 65.0473L22.2137 65.1888C22.2841 65.6814 22.706 66.0473 23.2037 66.0473V65.0473ZM35.7037 65.0473V66.0473C36.0138 66.0473 36.3063 65.9035 36.4957 65.6579C36.685 65.4123 36.7497 65.0927 36.6708 64.7928L35.7037 65.0473ZM24.7036 39.0473L23.8556 39.5773L23.8828 39.6208L23.9143 39.6613L24.7036 39.0473ZM19.7036 37.0473L20.3283 37.8282L19.7036 37.0473ZM24.2037 47.0473L23.4228 47.672L23.4574 47.7153L23.4965 47.7544L24.2037 47.0473ZM24.7036 49.0473L25.4107 49.7544L24.7036 49.0473ZM17.7037 26.0473L16.7231 25.8512L16.7177 25.8784L16.7138 25.9059L17.7037 26.0473ZM13.2037 26.0473L12.2421 25.7726L12.2389 25.7842L13.2037 26.0473ZM10.2037 37.0473L11.1653 37.3221L11.1685 37.3105L10.2037 37.0473ZM11.7037 43.5473L10.9355 44.1875H10.9355L11.7037 43.5473ZM22.2036 60.0473L23.1523 59.7311L22.2036 60.0473ZM23.2037 66.0473H35.7037V64.0473H23.2037V66.0473ZM36.6708 64.7928C36.2643 63.2482 35.7698 60.8289 35.3754 58.6331C35.1788 57.5385 35.0089 56.5091 34.8885 55.6828C34.7638 54.8269 34.7036 54.2616 34.7036 54.0473H32.7036C32.7036 54.4331 32.7893 55.147 32.9094 55.9712C33.0338 56.8251 33.2076 57.8771 33.4069 58.9866C33.8042 61.1991 34.3098 63.6798 34.7366 65.3018L36.6708 64.7928ZM34.7036 54.0473C34.7036 53.2098 34.5671 51.74 34.1011 50.1423C33.636 48.5476 32.8205 46.75 31.4107 45.3402L29.9965 46.7544C31.0867 47.8446 31.7712 49.2971 32.1811 50.7023C32.5901 52.1047 32.7036 53.3849 32.7036 54.0473H34.7036ZM31.4107 45.3402C29.4582 43.3877 26.6574 39.9306 25.493 38.4334L23.9143 39.6613C25.0831 41.1641 27.949 44.7069 29.9965 46.7544L31.4107 45.3402ZM25.5516 38.5173C25.0847 37.7702 24.2315 36.7303 23.1527 36.0881C22.6042 35.7615 21.9495 35.5096 21.2282 35.4975C20.486 35.485 19.7512 35.7287 19.0789 36.2665L20.3283 37.8282C20.6561 37.566 20.942 37.493 21.1947 37.4972C21.4682 37.5018 21.7822 37.5998 22.1296 37.8066C22.8424 38.231 23.4892 38.9911 23.8556 39.5773L25.5516 38.5173ZM19.0789 36.2665C18.1618 37.0001 17.8494 37.9876 17.8921 38.9584C17.9326 39.8799 18.2875 40.797 18.692 41.5724C19.5044 43.1294 20.7025 44.4604 20.9965 44.7544L22.4107 43.3402C22.2048 43.1343 21.1529 41.9653 20.4652 40.6473C20.1198 39.9852 19.9121 39.371 19.8901 38.8706C19.8703 38.4195 19.9954 38.0945 20.3283 37.8282L19.0789 36.2665ZM20.9965 44.7544C21.3463 45.1042 22.7335 46.8105 23.4228 47.672L24.9845 46.4226C24.3404 45.6175 22.861 43.7905 22.4107 43.3402L20.9965 44.7544ZM23.4965 47.7544C23.4818 47.7397 23.526 47.786 23.6007 47.923C23.6671 48.0447 23.7316 48.1906 23.778 48.3327C23.827 48.4826 23.8407 48.5824 23.8412 48.6245C23.8419 48.6876 23.8203 48.5164 23.9965 48.3403L25.4107 49.7544C25.7869 49.3782 25.8445 48.8987 25.841 48.6014C25.8374 48.2831 25.7636 47.9704 25.6792 47.712C25.5923 47.4457 25.4777 47.1874 25.3566 46.9654C25.2438 46.7586 25.0922 46.5216 24.9108 46.3403L23.4965 47.7544ZM23.9965 48.3403C24.1841 48.1526 24.3367 48.32 24.0351 48.1907C23.7624 48.0738 23.367 47.7964 22.9108 47.3402L21.4966 48.7544C22.0405 49.2983 22.645 49.7709 23.2472 50.029C23.8206 50.2747 24.7232 50.442 25.4107 49.7544L23.9965 48.3403ZM22.9108 47.3402C22.1611 46.5905 19.3405 43.1176 17.9846 41.4226L16.4228 42.672C17.7336 44.3105 20.6464 47.9042 21.4966 48.7544L22.9108 47.3402ZM17.9846 41.4226C17.5307 40.8553 16.4327 38.5013 17.1843 34.7435L15.2231 34.3512C14.3747 38.5934 15.5434 41.5727 16.4228 42.672L17.9846 41.4226ZM17.1843 34.7435C17.9878 30.726 18.5243 27.3744 18.6937 26.1888L16.7138 25.9059C16.5498 27.0536 16.0196 30.3687 15.2231 34.3512L17.1843 34.7435ZM18.6843 26.2435C18.792 25.705 18.8293 24.873 18.5662 24.0726C18.2879 23.2258 17.6496 22.378 16.4462 22.0772L15.9612 24.0175C16.3579 24.1166 16.5529 24.3523 16.6662 24.6971C16.7948 25.0884 16.7821 25.5563 16.7231 25.8512L18.6843 26.2435ZM16.4462 22.0772C15.0624 21.7312 14.0324 22.5827 13.4391 23.3462C12.8281 24.1325 12.4312 25.1111 12.2422 25.7726L14.1652 26.3221C14.3096 25.8169 14.6126 25.0955 15.0183 24.5734C15.4417 24.0286 15.745 23.9634 15.9612 24.0175L16.4462 22.0772ZM12.2389 25.7842L9.23894 36.7842L11.1685 37.3105L14.1685 26.3105L12.2389 25.7842ZM9.24218 36.7726C8.84782 38.1529 8.66242 41.4598 10.9355 44.1875L12.4719 42.9071C10.745 40.8348 10.8929 38.2751 11.1652 37.3221L9.24218 36.7726ZM10.9355 44.1875C12.1358 45.6279 14.6009 49.3198 16.8582 52.8938C17.9792 54.6688 19.0358 56.3937 19.8414 57.7649C20.2446 58.4511 20.5817 59.0431 20.8315 59.5058C21.0964 59.9965 21.2245 60.2723 21.2549 60.3636L23.1523 59.7311C23.0577 59.4474 22.8421 59.0201 22.5914 58.5557C22.3256 58.0633 21.9751 57.4483 21.5658 56.7517C20.7465 55.3572 19.6781 53.6134 18.5491 51.8258C16.3065 48.2749 13.7716 44.4668 12.4719 42.9071L10.9355 44.1875ZM21.2549 60.3636C21.6214 61.463 22.0445 64.0046 22.2137 65.1888L24.1936 64.9059C24.0294 63.7568 23.5858 61.0316 23.1523 59.7311L21.2549 60.3636Z" fill="#8EB72C"/>
<path d="M56.6441 65L57.6338 65.1432C57.5626 65.635 57.1411 66 56.6441 66V65ZM44 65V66C43.6894 66 43.3963 65.8556 43.2071 65.6093C43.0178 65.363 42.9537 65.0427 43.0337 64.7425L44 65ZM49.0577 46.0214L49.7603 46.7329L49.0577 46.0214ZM55.1269 39.0293L55.9719 39.5641L55.9443 39.6076L55.9125 39.648L55.1269 39.0293ZM60.1845 37.0315L59.5646 37.8162L60.1845 37.0315ZM58.1615 44.0236L58.8641 44.7352L58.1615 44.0236ZM55.6326 47.0203L56.4096 47.6497L56.3747 47.6928L56.3352 47.7318L55.6326 47.0203ZM55.1269 49.018L55.8295 48.3065L55.1269 49.018ZM57.6556 48.0191L56.953 47.3076L57.6556 48.0191ZM62.2075 26.0439L63.1876 25.8454L63.1932 25.8729L63.1972 25.9007L62.2075 26.0439ZM66.7594 26.0439L67.72 25.766L67.7233 25.7777L66.7594 26.0439ZM69.7939 37.0315L68.8333 37.3095L68.83 37.2977L69.7939 37.0315ZM68.2767 43.5242L69.0409 44.1691H69.0409L68.2767 43.5242ZM57.6557 60.0056L56.7082 59.6858L57.6557 60.0056ZM56.6441 66H44V64H56.6441V66ZM43.0337 64.7425C43.4448 63.2 43.9449 60.7839 44.3438 58.5906C44.5426 57.4973 44.7145 56.4693 44.8363 55.6441C44.9624 54.7889 45.0231 54.2252 45.0231 54.0124H47.0231C47.0231 54.3989 46.9363 55.1129 46.8148 55.936C46.689 56.7892 46.5131 57.8401 46.3115 58.9484C45.9096 61.1585 45.3982 63.6369 44.9663 65.2575L43.0337 64.7425ZM45.0231 54.0124C45.0231 53.1745 45.1614 51.7051 45.6331 50.1082C46.104 48.5137 46.9294 46.7176 48.3551 45.3098L49.7603 46.7329C48.6572 47.8223 47.9653 49.2726 47.5511 50.6747C47.1377 52.0744 47.0231 53.3519 47.0231 54.0124H45.0231ZM48.3551 45.3098C50.3303 43.3594 53.1634 39.906 54.3413 38.4105L55.9125 39.648C54.7301 41.1492 51.8313 44.6879 49.7603 46.7329L48.3551 45.3098ZM54.2819 38.4945C54.7547 37.7475 55.6173 36.7098 56.7063 36.0696C57.2599 35.7441 57.9186 35.4943 58.6428 35.4823C59.3872 35.47 60.1262 35.711 60.8044 36.2468L59.5646 37.8162C59.2313 37.5529 58.9378 37.4777 58.6759 37.482C58.3938 37.4867 58.0725 37.5864 57.72 37.7937C56.9967 38.2189 56.342 38.9792 55.9719 39.5641L54.2819 38.4945ZM60.8044 36.2468C61.7303 36.9783 62.0488 37.9662 62.0054 38.9411C61.9643 39.8644 61.6044 40.782 61.1951 41.5566C60.3732 43.1123 59.1612 44.4418 58.8641 44.7352L57.4588 43.3121C57.6675 43.106 58.7315 41.9383 59.4268 40.6223C59.7762 39.961 59.9853 39.3491 60.0074 38.8521C60.0272 38.4068 59.9032 38.0836 59.5646 37.8162L60.8044 36.2468ZM58.8641 44.7352C58.5101 45.0847 57.1067 46.7893 56.4096 47.6497L54.8556 46.3908C55.5072 45.5865 57.0036 43.7616 57.4588 43.3121L58.8641 44.7352ZM56.3352 47.7318C56.3498 47.7174 56.3052 47.7637 56.2298 47.9002C56.1628 48.0215 56.0978 48.1667 56.051 48.3081C56.0017 48.4573 55.9882 48.5556 55.9877 48.5958C55.987 48.6558 56.0078 48.4825 55.8295 48.3065L54.4242 49.7295C54.0437 49.3538 53.9844 48.8724 53.9879 48.5724C53.9916 48.2526 54.0666 47.9389 54.1521 47.6802C54.2403 47.4137 54.3564 47.1553 54.4791 46.9332C54.5934 46.7263 54.7468 46.4896 54.9299 46.3087L56.3352 47.7318ZM55.8295 48.3065C55.6459 48.1251 55.503 48.2902 55.8118 48.1595C56.0904 48.0416 56.4916 47.7632 56.953 47.3076L58.3582 48.7307C57.8081 49.274 57.1978 49.7447 56.5913 50.0014C56.0151 50.2452 55.1136 50.4103 54.4242 49.7295L55.8295 48.3065ZM56.953 47.3076C57.7115 46.5585 60.5647 43.0893 61.9362 41.3964L63.4903 42.6554C62.1643 44.2921 59.2181 47.8816 58.3582 48.7307L56.953 47.3076ZM61.9362 41.3964C62.3948 40.8304 63.5041 38.4823 62.7447 34.7328L64.7049 34.3358C65.5639 38.5773 64.3804 41.5566 63.4903 42.6554L61.9362 41.3964ZM62.7447 34.7328C61.9319 30.7197 61.3892 27.3717 61.2178 26.1871L63.1972 25.9007C63.363 27.0469 63.8992 30.358 64.7049 34.3358L62.7447 34.7328ZM61.2274 26.2424C61.1181 25.7029 61.0803 24.8694 61.3472 24.0675C61.6302 23.2173 62.2765 22.3748 63.4851 22.0764L63.9645 24.0181C63.5546 24.1193 63.358 24.359 63.2448 24.6991C63.1155 25.0875 63.1283 25.5525 63.1876 25.8454L61.2274 26.2424ZM63.4851 22.0764C64.8703 21.7345 65.9061 22.5749 66.5084 23.3404C67.1266 24.1259 67.5285 25.1041 67.72 25.766L65.7988 26.3218C65.6531 25.8184 65.3469 25.0985 64.9367 24.5772C64.5106 24.0357 64.1977 23.9606 63.9645 24.0181L63.4851 22.0764ZM67.7233 25.7777L70.7579 36.7653L68.83 37.2977L65.7954 26.3101L67.7233 25.7777ZM70.7545 36.7536C71.1545 38.1359 71.3411 41.4434 69.0409 44.1691L67.5124 42.8793C69.2583 40.8104 69.1077 38.2578 68.8333 37.3095L70.7545 36.7536ZM69.0409 44.1691C67.8267 45.6079 65.3332 49.2956 63.05 52.8656C61.916 54.6385 60.8473 56.3615 60.0324 57.731C59.6245 58.4164 59.2836 59.0078 59.031 59.4699C58.7629 59.9602 58.6337 60.2351 58.6032 60.3254L56.7082 59.6858C56.8042 59.4016 57.0226 58.9741 57.2761 58.5105C57.5451 58.0186 57.8996 57.4042 58.3136 56.7084C59.1424 55.3154 60.2231 53.5735 61.3651 51.788C63.6337 48.241 66.1978 44.4371 67.5124 42.8793L69.0409 44.1691ZM58.6032 60.3254C58.2328 61.4226 57.805 63.9602 57.6338 65.1432L55.6544 64.8568C55.8205 63.7091 56.2693 60.986 56.7082 59.6858L58.6032 60.3254Z" fill="#8EB72C"/>
<path d="M45.005 27.9945C43.203 26.1934 41.2508 27.244 40.5 27.9945C39.7492 27.244 37.797 26.1934 35.995 27.9945C34.193 29.7956 35.2441 31.7468 35.995 32.4972L40.5 37L45.005 32.4972C45.7559 31.7468 46.807 29.7956 45.005 27.9945Z" stroke="#8EB72C" stroke-width="2"/>
</svg>
