<svg width="81" height="81" viewBox="0 0 81 81" fill="none" xmlns="http://www.w3.org/2000/svg">
<g clip-path="url(#clip0_2638_23930)">
<path d="M28.4831 46.5237H22.2937V52.7127H28.4831V46.5237Z" stroke="#636362" stroke-width="2" stroke-linejoin="round"/>
<path d="M28.4831 35.4077H22.2937V41.5874H28.4831V35.4077Z" stroke="#636362" stroke-width="2" stroke-linejoin="round"/>
<path d="M28.4831 24.2173H22.2937V30.4063H28.4831V24.2173Z" stroke="#636362" stroke-width="2" stroke-linejoin="round"/>
<path d="M38.4677 46.5237H32.2783V52.7127H38.4677V46.5237Z" stroke="#636362" stroke-width="2" stroke-linejoin="round"/>
<path d="M38.4677 35.4077H32.2783V41.5874H38.4677V35.4077Z" stroke="#636362" stroke-width="2" stroke-linejoin="round"/>
<path d="M48.4526 46.5237H42.2632V52.7127H48.4526V46.5237Z" stroke="#636362" stroke-width="2" stroke-linejoin="round"/>
<path d="M58.4279 46.5237H52.2385V52.7127H58.4279V46.5237Z" stroke="#636362" stroke-width="2" stroke-linejoin="round"/>
<path d="M48.4526 35.4077H42.2632V41.5874H48.4526V35.4077Z" stroke="#636362" stroke-width="2" stroke-linejoin="round"/>
<path d="M58.4279 35.4077H52.2385V41.5874H58.4279V35.4077Z" stroke="#636362" stroke-width="2" stroke-linejoin="round"/>
<path d="M58.4279 24.2173H52.2385V30.4063H58.4279V24.2173Z" stroke="#636362" stroke-width="2" stroke-linejoin="round"/>
<path d="M37.178 14.6509V24.2174" stroke="#636362" stroke-width="2" stroke-miterlimit="10"/>
<path d="M43.8313 14.6509V24.2174" stroke="#636362" stroke-width="2" stroke-miterlimit="10"/>
<path d="M43.8314 19.4294H37.178" stroke="#636362" stroke-width="2" stroke-miterlimit="10"/>
<path d="M40.5 28.9402C35.2478 28.9402 30.9978 24.6812 30.9978 19.4294C30.9978 14.1776 35.2571 9.92786 40.5 9.92786C45.7429 9.92786 50.0114 14.1869 50.0114 19.4294C50.0114 24.672 45.7522 28.9402 40.5 28.9402Z" stroke="#636362" stroke-width="2" stroke-miterlimit="10"/>
<path d="M63.0677 65.0722V22.4544C63.0677 21.9162 62.6872 21.443 62.149 21.3409C61.0726 21.1275 60.0054 20.9419 58.9476 20.7656C58.9476 20.1811 58.9476 19.5408 58.9476 18.8449C58.9476 18.3346 58.3444 18.0376 58.2238 18.0005C56.4978 17.3974 54.3171 16.7943 52.322 16.2468" stroke="#636362" stroke-width="2" stroke-linejoin="round"/>
<path d="M28.4831 16.2468C26.4045 16.8221 24.3723 17.4345 22.535 18.084C22.2659 18.1768 22.0525 18.5294 22.0525 18.8727C22.0525 19.5594 22.0525 20.1903 22.0525 20.7656C20.9853 20.9419 19.9275 21.1368 18.8418 21.3409C18.3036 21.443 17.9231 21.9069 17.9231 22.4544V65.0722" stroke="#636362" stroke-width="2" stroke-linejoin="round"/>
<path d="M33.6519 65.0722V56.5356H47.3576V65.0722" stroke="#636362" stroke-width="2" stroke-linejoin="round"/>
<path d="M40.5 56.5356V65.0722" stroke="#636362" stroke-width="2" stroke-linejoin="round"/>
<path d="M15 65.072H66" stroke="#636362" stroke-width="2" stroke-linejoin="round"/>
</g>
<defs>
<clipPath id="clip0_2638_23930">
<rect width="51" height="57" fill="white" transform="translate(15 9)"/>
</clipPath>
</defs>
</svg>
