<svg width="81" height="81" viewBox="0 0 81 81" fill="none" xmlns="http://www.w3.org/2000/svg">
<g clip-path="url(#clip0_2480_6601)">
<path d="M56.5586 58.7939H46.0004C43.6945 58.7939 41.8193 60.6622 41.8193 62.9785C41.8193 65.2949 43.686 67.1631 46.0004 67.1631H56.5586C58.8645 67.1631 60.7396 65.2949 60.7396 62.9785C60.7396 60.6622 58.873 58.7939 56.5586 58.7939Z" stroke="#636362" stroke-width="2" stroke-miterlimit="10"/>
<path d="M51.2793 58.7939V67.1547" stroke="#636362" stroke-width="2" stroke-miterlimit="10"/>
<path d="M36.5487 13.8453C46.3299 13.8453 54.2527 16.7788 54.2527 20.4139V25.334C54.2527 28.9606 46.3299 31.9025 36.5487 31.9025C26.7676 31.9025 18.8447 28.9606 18.8447 25.334V20.4139C18.8447 16.7788 26.7676 13.8453 36.5487 13.8453Z" stroke="#636362" stroke-width="2" stroke-miterlimit="10"/>
<path d="M43.7365 23.7447C45.0373 23.6348 45.6793 23.4996 46.9885 23.06C47.1152 23.0177 47.2503 23.0346 47.3601 23.1192C47.4699 23.1953 47.529 23.3221 47.529 23.4489V26.8726C47.529 27.0502 47.4192 27.2023 47.2503 27.2615C45.882 27.718 45.1725 27.8702 43.8041 27.9801C43.7957 27.9801 43.7788 27.9801 43.7703 27.9801C43.669 27.9801 43.5676 27.9463 43.4916 27.8702C43.4071 27.7941 43.3564 27.6842 43.3564 27.5658V24.1421C43.3564 23.9307 43.5169 23.7532 43.7365 23.7363V23.7447Z" stroke="#636362" stroke-width="2" stroke-miterlimit="10"/>
<path d="M25.7373 23.1191C25.8471 23.043 25.9822 23.0176 26.1089 23.0599C27.4182 23.4995 28.0601 23.6348 29.3609 23.7447C29.572 23.7616 29.741 23.9391 29.741 24.1504V27.5742C29.741 27.6841 29.6903 27.8025 29.6058 27.8785C29.5298 27.9462 29.4284 27.9884 29.3271 27.9884C29.3186 27.9884 29.3017 27.9884 29.2933 27.9884C27.925 27.8785 27.2154 27.7264 25.8471 27.2699C25.6782 27.2107 25.5684 27.0585 25.5684 26.881V23.4572C25.5684 23.3304 25.6359 23.2036 25.7373 23.1275V23.1191Z" stroke="#636362" stroke-width="2" stroke-miterlimit="10"/>
<path d="M20.7705 33.8469C22.8484 36.0787 28.7187 37.8286 35.5436 37.8286C38.6012 37.8286 41.3548 37.5074 43.6523 36.9494V52.927C41.3463 53.4765 38.6012 53.8062 35.5436 53.8062C28.7187 53.8062 23.3889 52.2169 21.3195 49.9851" stroke="#636362" stroke-width="2" stroke-linejoin="round"/>
<path d="M38.6942 62.3867C38.01 62.4121 37.2751 62.429 36.5487 62.429C27.7136 62.429 21.3703 59.7745 21.3703 56.4944L20.627 28.2083" stroke="#636362" stroke-width="2" stroke-miterlimit="10"/>
<path d="M52.4789 28.1998L51.9214 50.0696" stroke="#636362" stroke-width="2" stroke-miterlimit="10"/>
<path d="M61.2973 58.9038C62.7163 57.957 63.4681 56.1902 63.0373 54.4402C62.4967 52.2 60.233 50.8136 57.9947 51.3631L47.7321 53.8485C46.178 54.2289 45.0461 55.4209 44.666 56.8664" stroke="#636362" stroke-width="2" stroke-miterlimit="10"/>
<path d="M52.8672 52.6057L53.7456 56.2577" stroke="#636362" stroke-width="2" stroke-miterlimit="10"/>
</g>
<defs>
<clipPath id="clip0_2480_6601">
<rect width="46" height="55" fill="white" transform="translate(18 13)"/>
</clipPath>
</defs>
</svg>
