<svg width="81" height="81" viewBox="0 0 81 81" fill="none" xmlns="http://www.w3.org/2000/svg">
<g clip-path="url(#clip0_2480_6599)">
<path d="M40.5001 14.7437C36.4916 14.7437 33.248 18.0306 33.248 22.0834C33.248 26.1363 36.499 29.4158 40.5001 29.4158C44.5013 29.4158 47.7522 26.1363 47.7522 22.0834C47.7522 18.0306 44.5086 14.7437 40.5001 14.7437Z" stroke="#636362" stroke-width="2" stroke-linejoin="round"/>
<path d="M55.0261 40.63C54.6142 39.3435 54.32 38.4437 54.32 38.4437C52.2238 33.3571 47.0017 31.9293 40.4998 31.9293C33.9979 31.9293 28.7759 33.3571 26.6797 38.4437C26.6797 38.4437 26.3928 39.3212 25.9883 40.5928" stroke="#636362" stroke-width="2" stroke-linejoin="round"/>
<path d="M17.8978 42.2437C19.0893 42.2437 20.0454 43.2253 20.0454 44.4225V46.2593C20.0381 47.4566 19.0746 48.4308 17.8904 48.4308C16.7062 48.4308 15.7354 47.4492 15.7427 46.2519V44.4151C15.7427 43.136 16.7798 42.2437 17.9051 42.2437H17.8978Z" stroke="#636362" stroke-width="2" stroke-linejoin="round"/>
<path d="M40.4853 49.524C44.1996 49.524 47.2226 46.475 47.2226 42.7122C47.2226 38.9493 44.207 35.9004 40.4853 35.9004C36.7637 35.9004 33.7407 38.9493 33.7407 42.7122C33.7407 46.475 36.7563 49.524 40.4853 49.524Z" stroke="#636362" stroke-width="2" stroke-linejoin="round"/>
<path d="M29.7176 42.2437C30.9091 42.2437 31.8653 43.2253 31.8653 44.4225V46.2593C31.8653 47.4566 30.8944 48.4308 29.7102 48.4308C28.5261 48.4308 27.5552 47.4492 27.5625 46.2519V44.4151C27.5625 43.136 28.607 42.2437 29.7249 42.2437H29.7176Z" stroke="#636362" stroke-width="2" stroke-linejoin="round"/>
<path d="M51.2972 42.2437C52.4887 42.2437 53.4448 43.2253 53.4448 44.4225V46.2593C53.4375 47.4566 52.474 48.4308 51.2898 48.4308C50.1056 48.4308 49.1348 47.4492 49.1421 46.2519V44.4151C49.1421 43.136 50.1866 42.2437 51.3045 42.2437H51.2972Z" stroke="#636362" stroke-width="2" stroke-linejoin="round"/>
<path d="M63.117 42.2437C64.3085 42.2437 65.2647 43.2253 65.2647 44.4225V46.2593C65.2647 47.4566 64.2938 48.4308 63.1096 48.4308C61.9255 48.4308 60.9546 47.4492 60.962 46.2519V44.4151C60.962 43.136 62.0064 42.2437 63.1243 42.2437H63.117Z" stroke="#636362" stroke-width="2" stroke-linejoin="round"/>
<path d="M55.7472 62.3071C57.6889 62.0096 59.0055 61.8906 59.0791 60.091C59.1011 59.5333 59.1452 59.2581 58.954 58.693C58.5863 57.5849 57.3359 56.6479 55.5118 56.6479C53.3642 56.6479 51.9299 58.2914 51.849 60.2174C51.849 60.3736 51.7902 61.1396 51.9373 61.4965C52.4227 62.6938 53.6657 62.6194 55.7399 62.3071H55.7472Z" stroke="#636362" stroke-width="2" stroke-linejoin="round"/>
<path d="M25.2528 62.3071C23.3111 62.0096 21.9946 61.8906 21.921 60.091C21.8989 59.5333 21.8548 59.2581 22.046 58.693C22.4138 57.5849 23.6642 56.6479 25.4956 56.6479C27.6432 56.6479 29.0775 58.2914 29.151 60.2174C29.151 60.3736 29.2099 61.1396 29.0628 61.4965C28.5773 62.6938 27.3343 62.6194 25.2528 62.3071Z" stroke="#636362" stroke-width="2" stroke-linejoin="round"/>
<path d="M58.6155 57.8677C59.9615 57.533 60.0351 56.4994 60.0498 56.0383V45.4339C60.0498 43.6269 59.1083 42.2734 57.3431 42.2734C56.0118 42.2734 54.6217 43.2253 54.5261 44.787L53.9304 52.4986C53.9304 52.4986 43.1773 52.1639 40.5515 52.1639C37.5212 52.1639 27.1726 52.4986 27.1726 52.4986L26.5769 44.787C26.4813 43.2253 25.0985 42.2734 23.7599 42.2734C22.0241 42.2734 21.0532 43.5897 21.0532 45.4339V56.0383C21.0679 56.4696 21.2592 57.6818 22.5242 57.9941" stroke="#636362" stroke-width="2" stroke-linejoin="round"/>
<path d="M48.2891 69L48.2817 58.9311L52.3123 58.5146" stroke="#636362" stroke-width="2" stroke-linejoin="round"/>
<path d="M28.71 58.5593L32.8067 58.9311L32.7994 68.9852" stroke="#636362" stroke-width="2" stroke-linejoin="round"/>
</g>
<defs>
<clipPath id="clip0_2480_6599">
<rect width="51" height="55" fill="white" transform="translate(15 14)"/>
</clipPath>
</defs>
</svg>
