<svg width="81" height="81" viewBox="0 0 81 81" fill="none" xmlns="http://www.w3.org/2000/svg">
<g clip-path="url(#clip0_2480_6598)">
<path d="M24.4882 56.9905L22.5068 51.0618L41.5577 53.5825L45.7956 66.343L30.1728 64.3485" stroke="#636362" stroke-width="2" stroke-linejoin="round"/>
<path d="M36.3526 36.5815C35.7629 38.0343 35.4248 39.1494 35.4248 40.8769V43.6882" stroke="#636362" stroke-width="2" stroke-linejoin="round"/>
<path d="M50.1904 36.4951C50.8352 38.0028 51.1811 39.0629 51.1811 40.8769V44.175" stroke="#636362" stroke-width="2" stroke-linejoin="round"/>
<path d="M55.4743 54.2186C56.2605 54.2186 56.1426 53.6925 56.1426 52.9779V48.1014C56.1426 45.934 53.9253 44.175 51.1813 44.175C48.4373 44.175 46.228 45.934 46.228 48.1014V52.9779C46.228 53.7003 46.11 54.2186 46.8963 54.2186" stroke="#636362" stroke-width="2" stroke-linecap="round" stroke-linejoin="round"/>
<path d="M38.554 46.8214C38.554 48.549 37.1544 49.9468 35.4247 49.9468C33.6949 49.9468 32.2954 48.549 32.2954 46.8214C32.2954 45.0938 33.6949 43.696 35.4247 43.696C37.1544 43.696 38.554 45.0938 38.554 46.8214Z" stroke="#636362" stroke-width="2" stroke-linejoin="round"/>
<path d="M43.6803 33.4719C49.129 33.4719 53.5399 29.0665 53.5399 23.6247C53.5399 18.1828 49.1212 13.7853 43.6803 13.7853C38.2395 13.7853 33.8286 18.1985 33.8286 23.6325C33.8286 29.0665 38.2395 33.4797 43.6803 33.4797V33.4719Z" stroke="#636362" stroke-width="2" stroke-linejoin="round"/>
<path d="M45.7953 44.1751L37.7362 36.4559C30.3691 36.9192 26.3671 40.4843 26.1548 49.1929" stroke="#636362" stroke-width="2" stroke-linejoin="round"/>
<path d="M61.214 56.8649V49.9546C61.214 40.6885 57.1962 36.9349 49.6168 36.4637L43.7671 42.2904" stroke="#636362" stroke-width="2" stroke-linejoin="round"/>
<path d="M23.6781 54.6897C23.6781 54.6897 19.1886 55.0352 19.8569 60.0295C20.7454 66.6022 22.4908 67.3011 25.6123 67.2068C28.7258 67.1205 30.9745 65.5028 30.2747 61.2231C29.5985 57.1005 27.4285 56.5508 25.5729 56.8099C24.8496 56.912 23.3557 57.1711 23.3557 57.1711" stroke="#636362" stroke-width="2" stroke-linecap="round" stroke-linejoin="round"/>
</g>
<defs>
<clipPath id="clip0_2480_6598">
<rect width="43" height="55" fill="white" transform="translate(19 13)"/>
</clipPath>
</defs>
</svg>
