<svg width="81" height="81" viewBox="0 0 81 81" fill="none" xmlns="http://www.w3.org/2000/svg">
<g clip-path="url(#clip0_2480_6600)">
<path d="M19.2432 55.1697L23.3269 51.106C22.9749 47.9006 24.1894 44.9491 26.2137 42.9348L37.6289 31.637C38.685 30.5861 40.4277 30.6123 41.4838 31.6633C42.6632 32.8369 42.408 34.5622 41.4838 35.4818L35.4374 41.4985L44.2298 32.7493C44.7843 32.1975 45.5148 31.8998 46.2893 31.8998C47.0638 31.8998 47.8295 32.2238 48.3752 32.7756C49.6426 34.0455 49.3609 35.8934 48.3752 36.8743L40.2693 44.9316L49.4929 35.7533C50.6283 34.6235 52.4765 34.6235 53.6119 35.7533C54.8881 37.0232 54.624 38.8799 53.6295 39.8695L45.0131 48.4611L51.5964 41.9101C52.1421 41.3671 52.8726 41.0606 53.6559 41.0606C54.4304 41.0606 55.1609 41.3584 55.7154 41.9101C56.9828 43.18 56.7011 45.0279 55.7154 46.0088L47.1958 54.4865C47.2574 54.469 47.319 54.4515 47.3894 54.434C50.7603 53.4794 52.6526 54.7142 53.4711 55.5375C54.5888 56.6498 55.0729 58.3313 54.5624 59.356C54.2016 60.1004 53.3479 60.1179 52.0629 60.1617C50.3731 60.2142 47.5479 60.3106 43.7545 61.9396C40.3397 63.4021 38.157 63.5423 35.6222 63.2883L31.5033 67.387" stroke="#636362" stroke-width="2" stroke-linejoin="round"/>
<path d="M26.654 39.8957C26.0995 39.7819 25.5802 39.5104 25.1666 39.1075C23.8992 37.8376 24.1808 35.9897 25.1666 35.0088L33.6861 26.5311C33.6245 26.5486 33.5541 26.5661 33.4925 26.5836C30.1216 27.5383 28.2294 26.3034 27.4021 25.4801C26.2843 24.3679 25.8002 22.6863 26.3107 21.6617C26.6716 20.9172 27.5253 20.8997 28.8103 20.8559C30.5001 20.8034 33.3253 20.707 37.1186 19.0781C40.5335 17.6067 42.7162 17.4754 45.2509 17.7293L49.3699 13.6306" stroke="#636362" stroke-width="2" stroke-linejoin="round"/>
<path d="M63.0032 27.1792L58.9194 31.2429C59.2539 34.2206 58.2241 36.9794 56.4551 38.9674" stroke="#636362" stroke-width="2" stroke-linejoin="round"/>
<path d="M24.8936 16.4067L26.9266 18.4298" stroke="#636362" stroke-width="2" stroke-linejoin="round"/>
<path d="M62.167 32.5127C62.2726 34.2117 62.5983 36.6114 63.9008 39.6242C65.3706 43.0222 65.5115 45.1942 65.2562 47.7165L69.3752 51.8152" stroke="#636362" stroke-width="2" stroke-linejoin="round"/>
<path d="M57.106 64.0239L55.3105 62.2373" stroke="#636362" stroke-width="2" stroke-linejoin="round"/>
<path d="M19.8332 47.9181C19.7276 46.219 19.4019 43.8193 18.0994 40.8066C16.6296 37.4085 16.4887 35.2365 16.7352 32.7142L12.625 28.6243" stroke="#636362" stroke-width="2" stroke-linejoin="round"/>
</g>
<defs>
<clipPath id="clip0_2480_6600">
<rect width="58" height="55" fill="white" transform="translate(12 13)"/>
</clipPath>
</defs>
</svg>
