<svg width="81" height="81" viewBox="0 0 81 81" fill="none" xmlns="http://www.w3.org/2000/svg">
<path d="M59.4611 47.2062L55.7052 61.8196C55.4003 63.6308 56.3151 64.7947 57.4654 65.2629C58.5256 65.6899 60.6392 65.6486 61.0272 64.0853" stroke="#222C34" stroke-width="2" stroke-linejoin="round"/>
<path d="M49.0804 40.6846C49.0804 40.6846 43.606 42.8401 42.3378 43.3497C41.2707 43.7767 40.5708 44.6926 40.848 46.0493C41.1806 47.6332 42.3101 47.7434 43.6198 47.7158C45.5047 47.6814 50.993 46.3316 53.1481 45.2022C53.9381 44.789 54.0698 44.5962 54.4162 43.7078C54.6796 43.0329 54.8805 41.9448 55.2755 40.7672C55.2755 40.7672 59.6967 47.0065 59.7937 48.0395C60.2718 52.9979 61.0202 63.8719 61.0202 63.8719C61.0202 65.628 62.4062 66.9571 63.9376 66.9571H63.9653C65.7809 66.9433 66.7649 65.9654 66.9382 64.1611L67.451 49.4513C67.5064 46.0493 67.6311 44.1555 66.0442 40.6777C63.4664 35.0375 59.0799 29.9208 54.9775 30.0585C51.8661 30.1687 50.6881 32.3724 50.1406 35.0238C49.7526 36.9107 49.0804 40.6846 49.0804 40.6846Z" stroke="#222C34" stroke-width="2" stroke-linejoin="round"/>
<path d="M44.2298 34.4108C47.2719 34.4108 49.7389 31.9592 49.7389 28.9359C49.7389 25.9127 47.2719 23.4611 44.2298 23.4611C41.1877 23.4611 38.7207 25.9127 38.7207 28.9359C38.7207 31.9592 41.1877 34.4108 44.2298 34.4108Z" stroke="#222C34" stroke-width="2" stroke-linejoin="round"/>
<path d="M34.9854 57.8529H48.3943" stroke="#222C34" stroke-width="2" stroke-linejoin="round"/>
<path d="M36.3993 64.6363C36.3993 65.5246 35.6717 66.2477 34.7778 66.2477C33.8839 66.2477 33.1562 65.5246 33.1562 64.6363C33.1562 63.7479 33.8839 63.0248 34.7778 63.0248C35.6717 63.0248 36.3993 63.7479 36.3993 64.6363Z" stroke="#222C34" stroke-width="2" stroke-linecap="round" stroke-linejoin="round"/>
<path d="M46.981 47.1786C47.6878 48.0325 48.1105 49.1275 48.1105 50.3189L48.7896 66.1719" stroke="#222C34" stroke-width="2" stroke-linecap="round" stroke-linejoin="round"/>
<path d="M34.771 63.0248L35.2699 50.319C35.2699 47.585 37.5013 45.3744 40.2454 45.3744H40.7859" stroke="#222C34" stroke-width="2" stroke-linecap="round" stroke-linejoin="round"/>
<path d="M36.8393 17.3646C34.2001 18.4066 31.2459 20.3618 29.3974 23.4698C27.2027 27.1598 26.6839 32.2711 29.7332 38.9719C28.3295 38.8747 26.9505 38.5255 25.6633 37.9368C23.9086 37.1342 22.3788 35.9112 21.2096 34.3762C20.0403 32.8412 19.2677 31.0415 18.9601 29.1366C18.6526 27.2317 18.8195 25.2803 19.4462 23.4553C20.073 21.6303 21.1401 19.9881 22.5531 18.674C23.9661 17.3599 25.6814 16.4146 27.547 15.9218C29.4126 15.429 31.371 15.4039 33.2486 15.8487C34.5258 16.1513 35.7389 16.665 36.8393 17.3646Z" stroke="#222C34" stroke-width="2"/>
<path d="M19.6233 43.2083L20.0027 42.0298L20.8145 42.9646C20.9669 43.1401 21.1882 43.2407 21.4207 43.24L22.6588 43.2367L22.0205 44.2976C21.9007 44.4968 21.8734 44.7384 21.9459 44.9593L22.3316 46.1357L21.1254 45.8566C20.8989 45.8042 20.6608 45.8529 20.4731 45.99L19.4734 46.7205L19.3662 45.487C19.346 45.2554 19.2261 45.044 19.0377 44.9079L18.0341 44.1828L19.174 43.6997C19.388 43.609 19.5521 43.4296 19.6233 43.2083Z" fill="#222C34" stroke="#222C34"/>
<path d="M14.5747 36.621L15.5 34.9794L16.4253 36.621L16.8609 36.3755L16.4253 36.621C16.5395 36.8236 16.7361 36.9664 16.964 37.0124L18.8113 37.3852L17.5359 38.7725C17.3785 38.9437 17.3034 39.1748 17.3301 39.4058L17.5465 41.2778L15.8329 40.4936C15.6215 40.3968 15.3785 40.3968 15.1671 40.4936L13.4535 41.2778L13.6699 39.4058C13.6966 39.1748 13.6215 38.9437 13.4641 38.7725L12.1887 37.3852L14.036 37.0124L13.9371 36.5223L14.036 37.0124C14.2639 36.9664 14.4605 36.8236 14.5747 36.621Z" fill="#222C34" stroke="#222C34"/>
</svg>
