<svg width="81" height="81" viewBox="0 0 81 81" fill="none" xmlns="http://www.w3.org/2000/svg">
<g clip-path="url(#clip0_2638_23985)">
<path d="M61.0537 68V59.8274C63.1368 59.8274 65.1427 58.5646 65.1427 56.0479V43.4469C65.1427 36.879 62.3653 34.2132 57.1104 33.8712L52.9957 37.4227L48.8809 33.8712C43.6347 34.2132 40.8486 36.879 40.8486 43.4469V56.1619C40.8486 58.3191 42.5717 59.8274 44.9205 59.8274V68" stroke="#636362" stroke-width="2" stroke-linejoin="round"/>
<path d="M53.0043 30.8458C56.7761 30.8458 59.8364 27.7241 59.8364 23.8657C59.8364 20.0074 56.7761 16.8856 53.0043 16.8856C49.2324 16.8856 46.1807 20.0161 46.1807 23.8657C46.1807 27.7153 49.241 30.8458 53.0043 30.8458Z" stroke="#636362" stroke-width="2" stroke-linejoin="round"/>
</g>
<path d="M37.3333 13H18.6667C16.5333 13 16 14.7228 16 15.5842V24.1982C16 26.2655 17.7778 26.7824 18.6667 26.7824H28.4444C29.1556 26.7824 29.9259 27.3125 30.2222 27.5775L35.1111 31.9508C35.5556 32.3814 33.7778 29.8834 33.7778 28.5052C33.7778 27.1269 34.963 26.7824 35.5556 26.7824H37.3333C39.4667 26.7824 40 25.0596 40 24.1982V15.5842C40 13.5168 38.2222 13 37.3333 13Z" stroke="#636362" stroke-width="2"/>
<path d="M20 18H35" stroke="#636362" stroke-width="2" stroke-linecap="round"/>
<path d="M20 22H27" stroke="#636362" stroke-width="2" stroke-linecap="round"/>
<path d="M35 22H31" stroke="#636362" stroke-width="2" stroke-linecap="round"/>
<defs>
<clipPath id="clip0_2638_23985">
<rect width="26" height="52" fill="white" transform="translate(40 16)"/>
</clipPath>
</defs>
</svg>
