<svg width="81" height="81" viewBox="0 0 81 81" fill="none" xmlns="http://www.w3.org/2000/svg">
<g clip-path="url(#clip0_2480_6602)">
<path d="M52.2689 42.9478L47.6418 60.859C47.2662 63.079 48.3931 64.5055 49.8103 65.0794C51.1164 65.6028 53.7202 65.5521 54.1983 63.6361" stroke="#636362" stroke-width="2" stroke-linejoin="round"/>
<path d="M39.4802 34.9544C39.4802 34.9544 32.7359 37.5964 31.1736 38.221C29.8589 38.7443 28.9967 39.8669 29.3381 41.5298C29.7479 43.4712 31.1395 43.6062 32.753 43.5724C35.075 43.5302 41.8364 41.8759 44.4914 40.4916C45.4646 39.9851 45.6268 39.7488 46.0537 38.6599C46.3781 37.8327 46.6257 36.4991 47.1123 35.0557C47.1123 35.0557 52.5589 42.703 52.6785 43.9692C53.2675 50.0465 54.1895 63.3745 54.1895 63.3745C54.1895 65.5269 55.8969 67.1559 57.7836 67.1559H57.8178C60.0545 67.139 61.2667 65.9405 61.4802 63.729L62.1119 45.6995C62.1802 41.5298 62.3339 39.2086 60.3789 34.946C57.2031 28.033 51.7991 21.7615 46.7452 21.9303C42.9121 22.0654 41.4608 24.7664 40.7863 28.0161C40.3083 30.3289 39.4802 34.9544 39.4802 34.9544Z" stroke="#636362" stroke-width="2" stroke-linejoin="round"/>
<path d="M33.5042 27.2649C37.252 27.2649 40.2912 24.26 40.2912 20.5545C40.2912 16.849 37.252 13.8441 33.5042 13.8441C29.7565 13.8441 26.7173 16.849 26.7173 20.5545C26.7173 24.26 29.7565 27.2649 33.5042 27.2649Z" stroke="#636362" stroke-width="2" stroke-linejoin="round"/>
<path d="M22.1162 55.9973H38.6354" stroke="#636362" stroke-width="2" stroke-linejoin="round"/>
<path d="M23.8576 64.3113C23.8576 65.4002 22.9613 66.2865 21.86 66.2865C20.7587 66.2865 19.8623 65.4002 19.8623 64.3113C19.8623 63.2225 20.7587 62.3362 21.86 62.3362C22.9613 62.3362 23.8576 63.2225 23.8576 64.3113Z" stroke="#636362" stroke-width="2" stroke-linecap="round" stroke-linejoin="round"/>
<path d="M36.8936 42.9141C37.7643 43.9607 38.2851 45.3028 38.2851 46.7631L39.1217 66.1937" stroke="#636362" stroke-width="2" stroke-linecap="round" stroke-linejoin="round"/>
<path d="M21.8516 62.3363L22.4662 46.7631C22.4662 43.4121 25.2152 40.7026 28.5958 40.7026H29.2617" stroke="#636362" stroke-width="2" stroke-linecap="round" stroke-linejoin="round"/>
</g>
<defs>
<clipPath id="clip0_2480_6602">
<rect width="44" height="55" fill="white" transform="translate(19 13)"/>
</clipPath>
</defs>
</svg>
