<svg width="81" height="81" viewBox="0 0 81 81" fill="none" xmlns="http://www.w3.org/2000/svg">
<path d="M58.4611 47.2451L54.7052 61.8586C54.4003 63.6698 55.3151 64.8336 56.4654 65.3019C57.5256 65.7289 59.6392 65.6875 60.0272 64.1243" stroke="#222C34" stroke-width="2" stroke-linejoin="round"/>
<path d="M48.0804 40.7235C48.0804 40.7235 42.606 42.879 41.3378 43.3887C40.2707 43.8156 39.5708 44.7316 39.848 46.0882C40.1806 47.6721 41.3101 47.7823 42.6198 47.7548C44.5047 47.7204 49.993 46.3706 52.1481 45.2412C52.9381 44.828 53.0698 44.6351 53.4162 43.7468C53.6796 43.0719 53.8805 41.9838 54.2755 40.8062C54.2755 40.8062 58.6967 47.0455 58.7937 48.0785C59.2718 53.0368 60.0202 63.9108 60.0202 63.9108C60.0202 65.6669 61.4062 66.9961 62.9376 66.9961H62.9653C64.7809 66.9823 65.7649 66.0044 65.9382 64.2001L66.451 49.4902C66.5064 46.0882 66.6311 44.1944 65.0442 40.7166C62.4664 35.0765 58.0799 29.9597 53.9775 30.0974C50.8661 30.2076 49.6881 32.4114 49.1406 35.0627C48.7526 36.9497 48.0804 40.7235 48.0804 40.7235Z" stroke="#222C34" stroke-width="2" stroke-linejoin="round"/>
<path d="M43.2298 34.4498C46.2719 34.4498 48.7389 31.9981 48.7389 28.9749C48.7389 25.9516 46.2719 23.5 43.2298 23.5C40.1877 23.5 37.7207 25.9516 37.7207 28.9749C37.7207 31.9981 40.1877 34.4498 43.2298 34.4498Z" stroke="#222C34" stroke-width="2" stroke-linejoin="round"/>
<path d="M33.9854 57.8918H47.3943" stroke="#222C34" stroke-width="2" stroke-linejoin="round"/>
<path d="M35.3993 64.6752C35.3993 65.5636 34.6717 66.2867 33.7778 66.2867C32.8839 66.2867 32.1562 65.5636 32.1562 64.6752C32.1562 63.7868 32.8839 63.0637 33.7778 63.0637C34.6717 63.0637 35.3993 63.7868 35.3993 64.6752Z" stroke="#222C34" stroke-width="2" stroke-linecap="round" stroke-linejoin="round"/>
<path d="M45.981 47.2175C46.6878 48.0715 47.1105 49.1664 47.1105 50.3578L47.7896 66.2109" stroke="#222C34" stroke-width="2" stroke-linecap="round" stroke-linejoin="round"/>
<path d="M33.771 63.0638L34.2699 50.3579C34.2699 47.6239 36.5013 45.4133 39.2454 45.4133H39.7859" stroke="#222C34" stroke-width="2" stroke-linecap="round" stroke-linejoin="round"/>
<path d="M34.1712 41.3159C32.4366 42.0033 30.5592 42.2523 28.7054 42.0409C26.8515 41.8294 25.0784 41.164 23.5431 40.1037C22.0079 39.0433 20.7578 37.6207 19.9037 35.9618C19.0495 34.3029 18.6177 32.4589 18.6464 30.5933C18.6751 28.7276 19.1635 26.8979 20.0683 25.2661C20.9731 23.6342 22.2663 22.2507 23.8335 21.2381C25.4007 20.2255 27.1934 19.615 29.0529 19.4607C30.9124 19.3064 32.7812 19.6131 34.4939 20.3536" stroke="#222C34" stroke-width="2" stroke-linecap="round"/>
<path d="M16 30.5H12" stroke="#222C34" stroke-width="2" stroke-linecap="round"/>
<path d="M17.5 23.5L14 21.5" stroke="#222C34" stroke-width="2" stroke-linecap="round"/>
<path d="M23 18.5L21 15" stroke="#222C34" stroke-width="2" stroke-linecap="round"/>
<path d="M30 17V13.5V13" stroke="#222C34" stroke-width="2" stroke-linecap="round"/>
<path d="M17 37L13 39" stroke="#222C34" stroke-width="2" stroke-linecap="round"/>
<path d="M21 42L18.5 45.5" stroke="#222C34" stroke-width="2" stroke-linecap="round"/>
<path d="M28 44.5L27 48.5" stroke="#222C34" stroke-width="2" stroke-linecap="round"/>
</svg>
