<svg width="81" height="81" viewBox="0 0 81 81" fill="none" xmlns="http://www.w3.org/2000/svg">
<path d="M18.4472 49.6626L24.4472 59.6626M18.4472 49.6626C18.2805 49.6626 17.4472 49.9626 15.4472 51.1626C13.4472 52.3626 13.9472 53.9959 14.4472 54.6626C14.7805 55.3292 15.8472 57.3626 17.4472 60.1626C19.0472 62.9626 22.7805 60.9959 24.4472 59.6626M18.4472 49.6626L25.4473 46.6626C26.9473 46.1626 30.5473 45.4626 32.9473 46.6626C35.3473 47.8626 41.9473 49.4959 44.9473 50.1626C46.1851 50.5752 48.3765 51.6689 48.8797 53.1626M24.4472 59.6626C25.7806 58.9959 29.3473 57.9626 32.9473 59.1626C36.5473 60.3626 39.1139 60.9959 39.9473 61.1626C41.1139 61.4959 44.5473 61.7626 48.9473 60.1626C53.3473 58.5626 60.1139 55.8292 62.9473 54.6626C63.9473 54.1626 65.4473 53.1626 64.9473 51.6626C64.3772 49.9523 63.4473 49.1626 61.9473 49.6626C60.8866 50.0161 53.4473 52.6626 51.4473 53.1626C49.9473 53.5376 49.4022 53.1626 48.8797 53.1626M37.4473 55.6626C39.4473 55.6626 43.7473 55.7626 44.9473 56.1626C46.4473 56.6626 48.4473 56.6626 48.9473 54.1626C49.0172 53.8131 48.9863 53.4789 48.8797 53.1626" stroke="#222C34" stroke-width="2" stroke-linecap="round"/>
<path d="M48.5 18C46.5 18 46 19.6667 46 20.5C46 21.3333 46.5 23 48.5 23" stroke="#222C34" stroke-width="2" stroke-linecap="round"/>
<path d="M33.5 18C31.5 18 31 19.6667 31 20.5C31 21.3333 31.5 23 33.5 23" stroke="#222C34" stroke-width="2" stroke-linecap="round"/>
<path d="M26 21.5C26 20.9477 26.4477 20.5 27 20.5H53C53.5523 20.5 54 20.9477 54 21.5V39C54 39.5523 53.5523 40 53 40H27C26.4477 40 26 39.5523 26 39V21.5Z" stroke="#222C34" stroke-width="2"/>
<rect x="29" y="26.5" width="4" height="4" rx="0.6" fill="#222C34"/>
<rect x="35" y="26.5" width="4" height="4" rx="0.6" fill="#222C34"/>
<rect x="41" y="26.5" width="4" height="4" rx="0.6" fill="#222C34"/>
<rect x="35" y="32.5" width="4" height="4" rx="0.6" fill="#222C34"/>
<rect x="47" y="26.5" width="4" height="4" rx="0.6" fill="#222C34"/>
<rect x="29" y="32.5" width="4" height="4" rx="0.6" fill="#222C34"/>
</svg>
