<svg width="81" height="81" viewBox="0 0 81 81" fill="none" xmlns="http://www.w3.org/2000/svg">
<g clip-path="url(#clip0_2480_6603)">
<path d="M58.9748 59.4892C58.9748 59.4892 73.0338 50.4518 73.0338 43.2429C73.0338 38.9827 69.5553 35.5266 65.2458 35.5266C62.6659 35.5266 60.3759 36.7712 58.9651 38.6955C57.5447 36.7712 55.2644 35.5266 52.6845 35.5266C48.3847 35.5266 44.8965 38.9827 44.8965 43.2429C44.8965 50.873 58.9651 59.4892 58.9651 59.4892H58.9748Z" stroke="#636362" stroke-width="2" stroke-linejoin="round"/>
<path d="M54.5204 56.3585L35.9587 67.0426L12.4497 53.5917V36.0913" stroke="#636362" stroke-width="2" stroke-linejoin="round"/>
<path d="M16.498 38.6667V44.5736L21.6578 47.5318V41.6345L16.498 38.6667Z" stroke="#636362" stroke-width="2" stroke-linejoin="round"/>
<path d="M32.1518 64.879V54.2046L25.0498 50.1262V60.8103" stroke="#636362" stroke-width="2" stroke-linejoin="round"/>
<path d="M63.6128 35.6988L47.9016 13.9573L32.2193 17.6814L30.1805 18.8494L24.6728 15.6997L18.6144 19.194L18.5951 25.5221L7.96631 31.6396L9.86983 36.704L23.6293 33.4394L37.3307 52.4142L46.085 47.3689" stroke="#636362" stroke-width="2" stroke-linejoin="round"/>
</g>
<defs>
<clipPath id="clip0_2480_6603">
<rect width="67" height="55" fill="white" transform="translate(7 13)"/>
</clipPath>
</defs>
</svg>
