<svg width="28" height="28" viewBox="0 0 28 28" fill="none" xmlns="http://www.w3.org/2000/svg">
<path d="M21 5.22664C19.1434 3.37013 16.6255 2.32715 14 2.32715C11.3744 2.32715 8.85647 3.37013 6.99996 5.22664C5.14344 7.08316 4.10046 9.60113 4.10046 12.2266C4.10046 14.8522 5.14344 17.3701 6.99996 19.2266L13.1483 25.3866C13.2567 25.496 13.3858 25.5828 13.528 25.642C13.6701 25.7012 13.8226 25.7317 13.9766 25.7317C14.1306 25.7317 14.2831 25.7012 14.4253 25.642C14.5675 25.5828 14.6965 25.496 14.805 25.3866L21 19.1683C22.8487 17.3195 23.8873 14.812 23.8873 12.1975C23.8873 9.58291 22.8487 7.07543 21 5.22664ZM19.3316 17.5L14 22.855L8.66829 17.5C7.61496 16.4457 6.89785 15.1028 6.6076 13.641C6.31736 12.1792 6.46701 10.6642 7.03765 9.28744C7.60828 7.91069 8.57428 6.73403 9.81353 5.9062C11.0528 5.07837 12.5096 4.63652 14 4.63652C15.4903 4.63652 16.9471 5.07837 18.1864 5.9062C19.4256 6.73403 20.3916 7.91069 20.9623 9.28744C21.5329 10.6642 21.6826 12.1792 21.3923 13.641C21.1021 15.1028 20.385 16.4457 19.3316 17.5ZM10.5 8.64498C9.55813 9.58971 9.02925 10.8693 9.02925 12.2033C9.02925 13.5373 9.55813 14.8169 10.5 15.7616C11.1997 16.4626 12.0908 16.9412 13.0616 17.1376C14.0323 17.334 15.0394 17.2393 15.9565 16.8655C16.8737 16.4917 17.66 15.8553 18.2169 15.0363C18.7737 14.2172 19.0763 13.252 19.0866 12.2616C19.0919 11.6004 18.9645 10.9448 18.712 10.3336C18.4595 9.72241 18.0871 9.16806 17.6166 8.70331C17.1542 8.23032 16.6029 7.85344 15.9943 7.59435C15.3857 7.33527 14.7319 7.1991 14.0704 7.19368C13.409 7.18825 12.753 7.31369 12.1403 7.56276C11.5275 7.81184 10.97 8.17963 10.5 8.64498ZM15.9716 14.105C15.5295 14.5538 14.9452 14.8352 14.3186 14.9009C13.692 14.9667 13.062 14.8127 12.5364 14.4654C12.0107 14.1181 11.6221 13.5989 11.4368 12.9967C11.2515 12.3946 11.2812 11.7467 11.5207 11.164C11.7603 10.5813 12.1948 10.0998 12.75 9.802C13.3052 9.50418 13.9466 9.40845 14.5646 9.5312C15.1825 9.65394 15.7387 9.98753 16.1379 10.4749C16.5371 10.9623 16.7547 11.5733 16.7533 12.2033C16.7363 12.9235 16.4342 13.6074 15.9133 14.105H15.9716Z" fill="#3CB5E7"/>
</svg>
