<svg width="16" height="16" viewBox="0 0 16 16" fill="none" xmlns="http://www.w3.org/2000/svg">
    <g clip-path="url(#clip0_2742_6720)">
        <path
            d="M14.4615 1.33333H12.3077V1C12.3077 0.45 11.8923 0 11.3846 0C10.8769 0 10.4615 0.45 10.4615 1V1.33333H5.53846V1C5.53846 0.45 5.12308 0 4.61538 0C4.10769 0 3.69231 0.45 3.69231 1V1.33333H1.53846C0.689231 1.33333 0 2.08 0 3V14.3333C0 15.2533 0.689231 16 1.53846 16H14.4615C15.3108 16 16 15.2533 16 14.3333V3C16 2.08 15.3108 1.33333 14.4615 1.33333ZM11.0769 1C11.0769 0.816667 11.2154 0.666667 11.3846 0.666667C11.5538 0.666667 11.6923 0.816667 11.6923 1V3C11.6923 3.18333 11.5538 3.33333 11.3846 3.33333C11.2154 3.33333 11.0769 3.18333 11.0769 3V1ZM4.30769 1C4.30769 0.816667 4.44615 0.666667 4.61538 0.666667C4.78462 0.666667 4.92308 0.816667 4.92308 1V3C4.92308 3.18333 4.78462 3.33333 4.61538 3.33333C4.44615 3.33333 4.30769 3.18333 4.30769 3V1ZM15.3846 14.3333C15.3846 14.8833 14.9692 15.3333 14.4615 15.3333H1.53846C1.03077 15.3333 0.615385 14.8833 0.615385 14.3333V5.33333H14.4615C14.6308 5.33333 14.7692 5.18333 14.7692 5C14.7692 4.81667 14.6308 4.66667 14.4615 4.66667H0.615385V3C0.615385 2.45 1.03077 2 1.53846 2H3.69231V3C3.69231 3.55 4.10769 4 4.61538 4C5.12308 4 5.53846 3.55 5.53846 3V2H10.4615V3C10.4615 3.55 10.8769 4 11.3846 4C11.8923 4 12.3077 3.55 12.3077 3V2H14.4615C14.9692 2 15.3846 2.45 15.3846 3V14.3333Z"
            fill="#636362" />
        <path
            d="M3.99989 7.33331H2.76912C2.59989 7.33331 2.46143 7.48331 2.46143 7.66665C2.46143 7.84998 2.59989 7.99998 2.76912 7.99998H3.99989C4.16912 7.99998 4.30758 7.84998 4.30758 7.66665C4.30758 7.48331 4.16912 7.33331 3.99989 7.33331ZM7.07681 7.33331H5.84604C5.67681 7.33331 5.53835 7.48331 5.53835 7.66665C5.53835 7.84998 5.67681 7.99998 5.84604 7.99998H7.07681C7.24604 7.99998 7.3845 7.84998 7.3845 7.66665C7.3845 7.48331 7.24604 7.33331 7.07681 7.33331ZM10.1537 7.33331H8.92296C8.75373 7.33331 8.61527 7.48331 8.61527 7.66665C8.61527 7.84998 8.75373 7.99998 8.92296 7.99998H10.1537C10.323 7.99998 10.4614 7.84998 10.4614 7.66665C10.4614 7.48331 10.323 7.33331 10.1537 7.33331ZM11.9999 7.99998H13.2307C13.3999 7.99998 13.5383 7.84998 13.5383 7.66665C13.5383 7.48331 13.3999 7.33331 13.2307 7.33331H11.9999C11.8307 7.33331 11.6922 7.48331 11.6922 7.66665C11.6922 7.84998 11.8307 7.99998 11.9999 7.99998ZM3.99989 9.99998H2.76912C2.59989 9.99998 2.46143 10.15 2.46143 10.3333C2.46143 10.5166 2.59989 10.6666 2.76912 10.6666H3.99989C4.16912 10.6666 4.30758 10.5166 4.30758 10.3333C4.30758 10.15 4.16912 9.99998 3.99989 9.99998ZM7.07681 9.99998H5.84604C5.67681 9.99998 5.53835 10.15 5.53835 10.3333C5.53835 10.5166 5.67681 10.6666 5.84604 10.6666H7.07681C7.24604 10.6666 7.3845 10.5166 7.3845 10.3333C7.3845 10.15 7.24604 9.99998 7.07681 9.99998ZM10.1537 9.99998H8.92296C8.75373 9.99998 8.61527 10.15 8.61527 10.3333C8.61527 10.5166 8.75373 10.6666 8.92296 10.6666H10.1537C10.323 10.6666 10.4614 10.5166 10.4614 10.3333C10.4614 10.15 10.323 9.99998 10.1537 9.99998ZM13.2307 9.99998H11.9999C11.8307 9.99998 11.6922 10.15 11.6922 10.3333C11.6922 10.5166 11.8307 10.6666 11.9999 10.6666H13.2307C13.3999 10.6666 13.5383 10.5166 13.5383 10.3333C13.5383 10.15 13.3999 9.99998 13.2307 9.99998ZM3.99989 12.6666H2.76912C2.59989 12.6666 2.46143 12.8166 2.46143 13C2.46143 13.1833 2.59989 13.3333 2.76912 13.3333H3.99989C4.16912 13.3333 4.30758 13.1833 4.30758 13C4.30758 12.8166 4.16912 12.6666 3.99989 12.6666ZM7.07681 12.6666H5.84604C5.67681 12.6666 5.53835 12.8166 5.53835 13C5.53835 13.1833 5.67681 13.3333 5.84604 13.3333H7.07681C7.24604 13.3333 7.3845 13.1833 7.3845 13C7.3845 12.8166 7.24604 12.6666 7.07681 12.6666ZM10.1537 12.6666H8.92296C8.75373 12.6666 8.61527 12.8166 8.61527 13C8.61527 13.1833 8.75373 13.3333 8.92296 13.3333H10.1537C10.323 13.3333 10.4614 13.1833 10.4614 13C10.4614 12.8166 10.323 12.6666 10.1537 12.6666Z"
            fill="#636362" />
    </g>
    <defs>
        <clipPath id="clip0_2742_6720">
            <rect width="16" height="16" fill="white" />
        </clipPath>
    </defs>
</svg>