<svg width="16" height="16" viewBox="0 0 16 16" fill="none" xmlns="http://www.w3.org/2000/svg">
    <g clip-path="url(#clip0_2742_6715)">
        <path
            d="M8 16H0.307692C0.184615 16 0.0707692 15.9262 0.0246154 15.8092C-0.0246154 15.6954 0.00307693 15.5631 0.0923077 15.4738L2.13231 13.4338C0.753846 11.9508 0 10.0338 0 8C0 3.58769 3.58769 0 8 0C12.4123 0 16 3.58769 16 8C16 12.4123 12.4123 16 8 16ZM1.04923 15.3846H8C12.0708 15.3846 15.3846 12.0708 15.3846 8C15.3846 3.92923 12.0708 0.615385 8 0.615385C3.92923 0.615385 0.615385 3.92923 0.615385 8C0.615385 9.97231 1.38462 11.8277 2.77846 13.2215C2.89846 13.3415 2.89846 13.5354 2.77846 13.6554L1.04923 15.3846Z"
            fill="#636362" />
        <path
            d="M4.00008 6.76925H12.0001C12.1693 6.76925 12.3078 6.63079 12.3078 6.46156C12.3078 6.29233 12.1693 6.15387 12.0001 6.15387H4.00008C3.83084 6.15387 3.69238 6.29233 3.69238 6.46156C3.69238 6.63079 3.83084 6.76925 4.00008 6.76925ZM9.53854 9.84618H4.00008C3.83084 9.84618 3.69238 9.98464 3.69238 10.1539C3.69238 10.3231 3.83084 10.4616 4.00008 10.4616H9.53854C9.70777 10.4616 9.84623 10.3231 9.84623 10.1539C9.84623 9.98464 9.70777 9.84618 9.53854 9.84618ZM12.0001 8.00002H4.00008C3.83084 8.00002 3.69238 8.13849 3.69238 8.30772C3.69238 8.47695 3.83084 8.61541 4.00008 8.61541H12.0001C12.1693 8.61541 12.3078 8.47695 12.3078 8.30772C12.3078 8.13849 12.1693 8.00002 12.0001 8.00002Z"
            fill="#636362" />
    </g>
    <defs>
        <clipPath id="clip0_2742_6715">
            <rect width="16" height="16" fill="white" />
        </clipPath>
    </defs>
</svg>